<svg width="32" height="32" viewBox="0 0 32 32" fill="none" xmlns="http://www.w3.org/2000/svg">
<circle cx="16" cy="16.0001" r="16" fill="#4A72FF"/>
<path d="M13.232 10.94C14.1813 10.94 14.9867 11.1747 15.648 11.644C16.3093 12.1133 16.8107 12.7533 17.152 13.564C17.4933 14.364 17.664 15.2813 17.664 16.316C17.664 17.3293 17.4933 18.2413 17.152 19.052C16.8107 19.8627 16.3093 20.5027 15.648 20.972C14.9867 21.4413 14.1813 21.676 13.232 21.676C12.2933 21.676 11.4933 21.4413 10.832 20.972C10.1707 20.5027 9.66933 19.8627 9.328 19.052C8.98667 18.2413 8.816 17.3293 8.816 16.316C8.816 15.2813 8.98667 14.364 9.328 13.564C9.66933 12.7533 10.1707 12.1133 10.832 11.644C11.4933 11.1747 12.2933 10.94 13.232 10.94ZM13.232 20.236C13.6587 20.236 14.0427 20.1507 14.384 19.98C14.736 19.7987 15.04 19.5373 15.296 19.196C15.552 18.844 15.7493 18.428 15.888 17.948C16.0267 17.4573 16.096 16.9133 16.096 16.316C16.096 15.7187 16.0267 15.18 15.888 14.7C15.7493 14.2093 15.552 13.7933 15.296 13.452C15.04 13.1 14.736 12.8333 14.384 12.652C14.0427 12.4707 13.6587 12.38 13.232 12.38C12.816 12.38 12.432 12.4707 12.08 12.652C11.728 12.8333 11.424 13.1 11.168 13.452C10.912 13.7933 10.7147 14.2093 10.576 14.7C10.4373 15.18 10.368 15.7187 10.368 16.316C10.368 16.9133 10.4373 17.4573 10.576 17.948C10.7147 18.428 10.912 18.844 11.168 19.196C11.424 19.5373 11.728 19.7987 12.08 19.98C12.432 20.1507 12.816 20.236 13.232 20.236ZM18.8078 12.476V11.116H22.3278V21.5H20.8078V12.476H18.8078Z" fill="white"/>
</svg>
