<svg width="32" height="32" viewBox="0 0 32 32" fill="none" xmlns="http://www.w3.org/2000/svg">
<circle cx="16" cy="16.0001" r="16" fill="#4A72FF"/>
<path d="M11.232 10.4401C12.1813 10.4401 12.9867 10.6748 13.648 11.1441C14.3093 11.6135 14.8107 12.2535 15.152 13.0641C15.4933 13.8641 15.664 14.7815 15.664 15.8161C15.664 16.8295 15.4933 17.7415 15.152 18.5521C14.8107 19.3628 14.3093 20.0028 13.648 20.4721C12.9867 20.9415 12.1813 21.1761 11.232 21.1761C10.2933 21.1761 9.49333 20.9415 8.832 20.4721C8.17067 20.0028 7.66933 19.3628 7.328 18.5521C6.98667 17.7415 6.816 16.8295 6.816 15.8161C6.816 14.7815 6.98667 13.8641 7.328 13.0641C7.66933 12.2535 8.17067 11.6135 8.832 11.1441C9.49333 10.6748 10.2933 10.4401 11.232 10.4401ZM11.232 19.7361C11.6587 19.7361 12.0427 19.6508 12.384 19.4801C12.736 19.2988 13.04 19.0375 13.296 18.6961C13.552 18.3441 13.7493 17.9281 13.888 17.4481C14.0267 16.9575 14.096 16.4135 14.096 15.8161C14.096 15.2188 14.0267 14.6801 13.888 14.2001C13.7493 13.7095 13.552 13.2935 13.296 12.9521C13.04 12.6001 12.736 12.3335 12.384 12.1521C12.0427 11.9708 11.6587 11.8801 11.232 11.8801C10.816 11.8801 10.432 11.9708 10.08 12.1521C9.728 12.3335 9.424 12.6001 9.168 12.9521C8.912 13.2935 8.71467 13.7095 8.576 14.2001C8.43733 14.6801 8.368 15.2188 8.368 15.8161C8.368 16.4135 8.43733 16.9575 8.576 17.4481C8.71467 17.9281 8.912 18.3441 9.168 18.6961C9.424 19.0375 9.728 19.2988 10.08 19.4801C10.432 19.6508 10.816 19.7361 11.232 19.7361ZM20.2638 18.1361L18.2158 20.0881L18.0398 19.6241H23.9278V21.0001H17.0478V19.6241C17.8158 18.8561 18.4771 18.1948 19.0318 17.6401C19.5864 17.0748 20.0504 16.5948 20.4238 16.2001C20.8078 15.7948 21.1118 15.4535 21.3358 15.1761C21.5598 14.8881 21.7304 14.6428 21.8478 14.4401C21.9651 14.2375 22.0451 14.0508 22.0878 13.8801C22.1304 13.7095 22.1518 13.5388 22.1518 13.3681C22.1518 13.0588 22.0771 12.7868 21.9278 12.5521C21.7891 12.3175 21.5811 12.1361 21.3038 12.0081C21.0371 11.8801 20.7171 11.8161 20.3438 11.8161C19.8104 11.8161 19.3571 11.9601 18.9838 12.2481C18.6104 12.5361 18.4184 12.9148 18.4078 13.3841H17.0158C16.9624 12.8295 17.0798 12.3335 17.3678 11.8961C17.6558 11.4481 18.0558 11.0961 18.5678 10.8401C19.0904 10.5735 19.6771 10.4401 20.3278 10.4401C20.8291 10.4401 21.2878 10.5095 21.7038 10.6481C22.1198 10.7868 22.4771 10.9841 22.7758 11.2401C23.0744 11.4961 23.2984 11.8001 23.4478 12.1521C23.6078 12.5041 23.6878 12.8935 23.6878 13.3201C23.6878 13.7361 23.5864 14.1575 23.3838 14.5841C23.1918 15.0001 22.9251 15.4108 22.5838 15.8161C22.2531 16.2215 21.8851 16.6215 21.4798 17.0161C21.0744 17.4001 20.6691 17.7735 20.2638 18.1361Z" fill="white"/>
</svg>
