<svg width="32" height="32" viewBox="0 0 32 32" fill="none" xmlns="http://www.w3.org/2000/svg">
<circle cx="16" cy="16.0001" r="16" fill="#4A72FF"/>
<path d="M11.232 10.4401C12.1813 10.4401 12.9867 10.6748 13.648 11.1441C14.3093 11.6135 14.8107 12.2535 15.152 13.0641C15.4933 13.8641 15.664 14.7815 15.664 15.8161C15.664 16.8295 15.4933 17.7415 15.152 18.5521C14.8107 19.3628 14.3093 20.0028 13.648 20.4721C12.9867 20.9415 12.1813 21.1761 11.232 21.1761C10.2933 21.1761 9.49333 20.9415 8.832 20.4721C8.17067 20.0028 7.66933 19.3628 7.328 18.5521C6.98667 17.7415 6.816 16.8295 6.816 15.8161C6.816 14.7815 6.98667 13.8641 7.328 13.0641C7.66933 12.2535 8.17067 11.6135 8.832 11.1441C9.49333 10.6748 10.2933 10.4401 11.232 10.4401ZM11.232 19.7361C11.6587 19.7361 12.0427 19.6508 12.384 19.4801C12.736 19.2988 13.04 19.0375 13.296 18.6961C13.552 18.3441 13.7493 17.9281 13.888 17.4481C14.0267 16.9575 14.096 16.4135 14.096 15.8161C14.096 15.2188 14.0267 14.6801 13.888 14.2001C13.7493 13.7095 13.552 13.2935 13.296 12.9521C13.04 12.6001 12.736 12.3335 12.384 12.1521C12.0427 11.9708 11.6587 11.8801 11.232 11.8801C10.816 11.8801 10.432 11.9708 10.08 12.1521C9.728 12.3335 9.424 12.6001 9.168 12.9521C8.912 13.2935 8.71467 13.7095 8.576 14.2001C8.43733 14.6801 8.368 15.2188 8.368 15.8161C8.368 16.4135 8.43733 16.9575 8.576 17.4481C8.71467 17.9281 8.912 18.3441 9.168 18.6961C9.424 19.0375 9.728 19.2988 10.08 19.4801C10.432 19.6508 10.816 19.7361 11.232 19.7361ZM20.6638 15.5921L20.6798 15.5121C21.1491 15.5441 21.5811 15.6081 21.9758 15.7041C22.3811 15.8001 22.7331 15.9495 23.0318 16.1521C23.3304 16.3548 23.5598 16.6215 23.7198 16.9521C23.8798 17.2721 23.9598 17.6721 23.9598 18.1521C23.9598 18.7175 23.8104 19.2295 23.5118 19.6881C23.2238 20.1468 22.8131 20.5095 22.2798 20.7761C21.7464 21.0428 21.1224 21.1761 20.4078 21.1761C19.7144 21.1761 19.0958 21.0375 18.5518 20.7601C18.0184 20.4828 17.6024 20.1148 17.3038 19.6561C17.0158 19.1868 16.8984 18.6588 16.9518 18.0721H18.3438C18.3438 18.4028 18.4344 18.7015 18.6158 18.9681C18.8078 19.2348 19.0584 19.4428 19.3678 19.5921C19.6878 19.7308 20.0344 19.8001 20.4078 19.8001C21.0264 19.8001 21.5118 19.6455 21.8638 19.3361C22.2158 19.0161 22.3918 18.5788 22.3918 18.0241C22.3918 17.4695 22.1944 17.0321 21.7998 16.7121C21.4051 16.3815 20.8611 16.2161 20.1678 16.2161H19.1118V15.0481H20.1678C20.6371 15.0481 21.0211 14.9788 21.3198 14.8401C21.6291 14.7015 21.8584 14.5095 22.0078 14.2641C22.1571 14.0081 22.2318 13.7095 22.2318 13.3681C22.2318 12.8988 22.0611 12.5255 21.7198 12.2481C21.3784 11.9601 20.9304 11.8161 20.3758 11.8161C19.8424 11.8161 19.3944 11.9601 19.0318 12.2481C18.6691 12.5361 18.4824 12.9148 18.4718 13.3841H17.0798C17.0371 12.9575 17.0958 12.5681 17.2558 12.2161C17.4158 11.8535 17.6504 11.5388 17.9598 11.2721C18.2798 11.0055 18.6424 10.8028 19.0478 10.6641C19.4638 10.5148 19.9064 10.4401 20.3758 10.4401C21.0691 10.4401 21.6718 10.5628 22.1838 10.8081C22.7064 11.0535 23.1064 11.3895 23.3838 11.8161C23.6611 12.2321 23.7998 12.7121 23.7998 13.2561C23.7998 13.7041 23.7198 14.0775 23.5598 14.3761C23.4104 14.6748 23.1918 14.9095 22.9038 15.0801C22.6264 15.2508 22.2958 15.3735 21.9118 15.4481C21.5278 15.5228 21.1118 15.5708 20.6638 15.5921Z" fill="white"/>
</svg>
