<svg width="24" height="25" viewBox="0 0 24 25" fill="none" xmlns="http://www.w3.org/2000/svg">
<path d="M9.59302 11.4707C9.05102 11.4707 8.62402 11.9457 8.62402 12.5257C8.62402 13.1037 9.06102 13.5807 9.59302 13.5807C10.134 13.5807 10.561 13.1037 10.561 12.5257C10.572 11.9447 10.134 11.4707 9.59302 11.4707ZM13.061 11.4707C12.519 11.4707 12.092 11.9457 12.092 12.5257C12.092 13.1037 12.529 13.5807 13.061 13.5807C13.602 13.5807 14.029 13.1037 14.029 12.5257C14.028 11.9447 13.602 11.4707 13.061 11.4707Z" fill="white"/>
<path d="M17.678 3.5H4.94701C4.69067 3.50066 4.43696 3.5518 4.20039 3.6505C3.96381 3.7492 3.74899 3.89354 3.5682 4.07526C3.3874 4.25699 3.24417 4.47254 3.14668 4.70962C3.04919 4.9467 2.99935 5.20066 3.00001 5.457V18.301C3.00001 19.384 3.87401 20.258 4.94701 20.258H15.72L15.215 18.499L16.432 19.63L17.581 20.694L19.625 22.5V5.457C19.6257 5.20066 19.5758 4.9467 19.4783 4.70962C19.3808 4.47254 19.2376 4.25699 19.0568 4.07526C18.876 3.89354 18.6612 3.7492 18.4246 3.6505C18.188 3.5518 17.9343 3.50066 17.678 3.5ZM14.01 15.907C14.01 15.907 13.668 15.499 13.384 15.136C14.628 14.784 15.103 14.006 15.103 14.006C14.713 14.262 14.343 14.444 14.01 14.568C12.7977 15.0754 11.4626 15.2138 10.172 14.966C9.69511 14.8723 9.22782 14.7351 8.77601 14.556C8.53772 14.4655 8.30614 14.3582 8.08301 14.235C8.05401 14.214 8.02601 14.206 7.99801 14.187C7.98303 14.1799 7.96973 14.1697 7.95901 14.157C7.78801 14.063 7.69301 13.997 7.69301 13.997C7.69301 13.997 8.14901 14.757 9.35601 15.118C9.07101 15.478 8.71901 15.907 8.71901 15.907C6.62001 15.84 5.82301 14.463 5.82301 14.463C5.82301 11.404 7.19101 8.925 7.19101 8.925C8.55901 7.898 9.86001 7.927 9.86001 7.927L9.95501 8.041C8.24501 8.536 7.45601 9.286 7.45601 9.286C7.45601 9.286 7.66601 9.172 8.01701 9.011C9.03301 8.565 9.84001 8.441 10.173 8.412C10.23 8.403 10.278 8.393 10.335 8.393C11.9822 8.17102 13.6572 8.48406 15.113 9.286C15.113 9.286 14.362 8.574 12.747 8.08L12.88 7.928C12.88 7.928 14.182 7.899 15.549 8.926C15.549 8.926 16.917 11.405 16.917 14.464C16.917 14.463 16.11 15.84 14.01 15.907Z" fill="white"/>
</svg>
