<svg width="24" height="25" viewBox="0 0 24 25" fill="none" xmlns="http://www.w3.org/2000/svg">
<path d="M8.94 19.2055C10.2069 19.2134 11.4627 18.9698 12.6346 18.4887C13.8066 18.0075 14.8714 17.2985 15.7672 16.4027C16.663 15.5069 17.3721 14.4421 17.8532 13.2701C18.3343 12.0982 18.578 10.8423 18.57 9.57548V9.13298C19.2267 8.65184 19.7951 8.06061 20.25 7.38548C19.6316 7.65592 18.9773 7.83529 18.3075 7.91798C19.0177 7.49481 19.5506 6.82873 19.8075 6.04298C19.1456 6.44006 18.4199 6.7192 17.6625 6.86798C17.1524 6.3245 16.4775 5.96427 15.7421 5.84302C15.0067 5.72176 14.2518 5.84625 13.5943 6.19722C12.9368 6.54818 12.4132 7.10606 12.1047 7.78453C11.7962 8.46301 11.7198 9.22425 11.8875 9.95048C10.542 9.88443 9.22553 9.53574 8.02377 8.92711C6.822 8.31847 5.7619 7.46354 4.9125 6.41798C4.48419 7.16136 4.35437 8.03972 4.54932 8.87522C4.74427 9.71072 5.24942 10.4409 5.9625 10.918C5.43646 10.8977 4.92259 10.7538 4.4625 10.498V10.5355C4.45783 11.3124 4.71954 12.0674 5.20403 12.6747C5.68851 13.282 6.3665 13.7049 7.125 13.873C6.63573 14.0046 6.12322 14.0251 5.625 13.933C5.84459 14.5955 6.26376 15.1739 6.82503 15.5888C7.38631 16.0037 8.06219 16.2348 8.76 16.2505C7.56691 17.2109 6.08407 17.7395 4.5525 17.7505C4.28396 17.7427 4.01606 17.7202 3.75 17.683C5.30022 18.6706 7.1019 19.1914 8.94 19.183" fill="white"/>
</svg>
