<svg width="280" height="280" viewBox="0 0 280 280" fill="none" xmlns="http://www.w3.org/2000/svg">
<path d="M7.87461 224.033C7.87461 239.489 13.8096 251.921 24.3748 262.849C34.9375 273.779 49.2643 279.919 64.2053 279.919H130.799C219.338 279.919 280 224.739 280 139.986C280 55.2342 219.338 0 130.799 0H7.87461C7.86148 6.99145 9.17918 13.9172 11.7569 20.3807C14.3345 26.8443 18.117 32.7185 22.8918 37.6674C27.6639 42.6162 33.3363 46.5423 39.5784 49.2212C45.8204 51.9001 52.5113 53.279 59.2705 53.279H127.702C181.434 53.279 216.608 86.4902 216.608 140.177C216.608 193.863 181.46 227.074 127.702 227.074H70.5051L7.87461 224.033Z" fill="white"/>
<path d="M123.371 226.748H60.373V279.701H123.371V226.748Z" fill="#D69268"/>
<path d="M62.6305 140.828V280C54.404 280 46.2563 278.325 38.6572 275.066C31.0554 271.807 24.1519 267.033 18.3351 261.013C12.5182 254.993 7.90626 247.848 4.75899 239.984C1.61434 232.12 -0.00262173 223.691 3.19077e-06 215.18V76.0354C16.6105 76.0354 32.5411 82.8618 44.2876 95.0127C56.0315 107.164 62.6305 123.644 62.6305 140.828Z" fill="#223D9F"/>
</svg>
