<svg width="24" height="24" viewBox="0 0 24 24" fill="none" xmlns="http://www.w3.org/2000/svg">
<circle r="12" transform="matrix(1 0 0 -1 12 12)" fill="white"/>
<path d="M13.5665 7.70001C13.4562 7.89762 13.3579 8.10169 13.2721 8.31112C12.4292 8.17782 11.5706 8.17782 10.7276 8.31112C10.6419 8.10169 10.5435 7.89762 10.4332 7.70001C9.6392 7.83568 8.86732 8.07864 8.13876 8.42223C6.83595 10.3024 6.24512 12.585 6.47209 14.8611C7.32112 15.4994 8.27402 15.9862 9.28876 16.3C9.51982 15.9948 9.72604 15.6715 9.90543 15.3333C9.57436 15.2113 9.25615 15.0568 8.95543 14.8722C9.03791 14.8174 9.11593 14.7561 9.18876 14.6889C10.0657 15.1113 11.0265 15.3306 11.9999 15.3306C12.9732 15.3306 13.9341 15.1113 14.811 14.6889C14.8888 14.7556 14.9665 14.8167 15.0443 14.8722C14.742 15.0554 14.4241 15.2115 14.0943 15.3389C14.2663 15.6848 14.467 16.0155 14.6943 16.3278C15.7078 16.015 16.659 15.5281 17.5054 14.8889C17.7379 12.6123 17.1465 10.3279 15.8388 8.45001C15.1184 8.09931 14.3541 7.84705 13.5665 7.70001ZM10.1554 13.5611C9.87742 13.5412 9.61795 13.4143 9.43149 13.2071C9.24504 12.9999 9.14609 12.7286 9.15543 12.45C9.14468 12.1711 9.24314 11.8989 9.42988 11.6915C9.61661 11.484 9.87691 11.3575 10.1554 11.3389C10.4339 11.3575 10.6942 11.484 10.881 11.6915C11.0677 11.8989 11.1662 12.1711 11.1554 12.45C11.1662 12.7289 11.0677 13.0011 10.881 13.2086C10.6942 13.416 10.4339 13.5425 10.1554 13.5611ZM13.8443 13.5611C13.5663 13.5412 13.3068 13.4143 13.1204 13.2071C12.9339 12.9999 12.835 12.7286 12.8443 12.45C12.8336 12.1711 12.932 11.8989 13.1188 11.6915C13.3055 11.484 13.5658 11.3575 13.8443 11.3389C14.1234 11.3561 14.3845 11.4822 14.5715 11.69C14.7585 11.8978 14.8565 12.1707 14.8443 12.45C14.8565 12.7293 14.7585 13.0022 14.5715 13.21C14.3845 13.4178 14.1234 13.5439 13.8443 13.5611Z" fill="black"/>
</svg>
