<svg width="24" height="24" viewBox="0 0 24 24" fill="none" xmlns="http://www.w3.org/2000/svg">
<circle r="12" transform="matrix(1 0 0 -1 12 12)" fill="#406AFF"/>
<path d="M13.5665 7.70016C13.4562 7.89777 13.3579 8.10184 13.2721 8.31128C12.4292 8.17797 11.5706 8.17797 10.7276 8.31128C10.6419 8.10184 10.5435 7.89777 10.4332 7.70016C9.6392 7.83583 8.86732 8.0788 8.13876 8.42239C6.83595 10.3025 6.24512 12.5851 6.47209 14.8613C7.32112 15.4995 8.27402 15.9863 9.28876 16.3002C9.51982 15.9949 9.72604 15.6717 9.90543 15.3335C9.57436 15.2114 9.25615 15.057 8.95543 14.8724C9.03791 14.8175 9.11593 14.7562 9.18876 14.6891C10.0657 15.1115 11.0265 15.3308 11.9999 15.3308C12.9732 15.3308 13.9341 15.1115 14.811 14.6891C14.8888 14.7557 14.9665 14.8168 15.0443 14.8724C14.742 15.0555 14.4241 15.2117 14.0943 15.3391C14.2663 15.6849 14.467 16.0157 14.6943 16.3279C15.7078 16.0152 16.659 15.5283 17.5054 14.8891C17.7379 12.6125 17.1465 10.328 15.8388 8.45016C15.1184 8.09946 14.3541 7.8472 13.5665 7.70016ZM10.1554 13.5613C9.87742 13.5413 9.61795 13.4144 9.43149 13.2073C9.24504 13.0001 9.14609 12.7287 9.15543 12.4502C9.14468 12.1712 9.24314 11.8991 9.42988 11.6916C9.61661 11.4841 9.87691 11.3576 10.1554 11.3391C10.4339 11.3576 10.6942 11.4841 10.881 11.6916C11.0677 11.8991 11.1662 12.1712 11.1554 12.4502C11.1662 12.7291 11.0677 13.0012 10.881 13.2087C10.6942 13.4162 10.4339 13.5427 10.1554 13.5613ZM13.8443 13.5613C13.5663 13.5413 13.3068 13.4144 13.1204 13.2073C12.9339 13.0001 12.835 12.7287 12.8443 12.4502C12.8336 12.1712 12.932 11.8991 13.1188 11.6916C13.3055 11.4841 13.5658 11.3576 13.8443 11.3391C14.1234 11.3563 14.3845 11.4823 14.5715 11.6901C14.7585 11.8979 14.8565 12.1709 14.8443 12.4502C14.8565 12.7295 14.7585 13.0024 14.5715 13.2102C14.3845 13.418 14.1234 13.5441 13.8443 13.5613Z" fill="white"/>
</svg>
