<svg width="20" height="21" viewBox="0 0 20 21" fill="none" xmlns="http://www.w3.org/2000/svg">
<path d="M10.0003 2.16699C5.40033 2.16699 1.66699 5.90033 1.66699 10.5003C1.66699 15.1003 5.40033 18.8337 10.0003 18.8337C14.6003 18.8337 18.3337 15.1003 18.3337 10.5003C18.3337 5.90033 14.6003 2.16699 10.0003 2.16699ZM13.867 7.83366C13.742 9.15033 13.2003 12.3503 12.9253 13.8253C12.8087 14.4503 12.5753 14.6587 12.3587 14.6837C11.8753 14.7253 11.5087 14.367 11.042 14.0587C10.3087 13.5753 9.89199 13.2753 9.18366 12.8087C8.35866 12.267 8.89199 11.967 9.36699 11.4837C9.49199 11.3587 11.6253 9.41699 11.667 9.24199C11.6728 9.21549 11.672 9.18797 11.6647 9.16183C11.6575 9.13569 11.644 9.11172 11.6253 9.09199C11.5753 9.05033 11.5087 9.06699 11.4503 9.07533C11.3753 9.09199 10.2087 9.86699 7.93366 11.4003C7.60033 11.6253 7.30033 11.742 7.03366 11.7337C6.73366 11.7253 6.16699 11.567 5.74199 11.4253C5.21699 11.2587 4.80866 11.167 4.84199 10.8753C4.85866 10.7253 5.06699 10.5753 5.45866 10.417C7.89199 9.35866 9.50866 8.65866 10.317 8.32533C12.6337 7.35866 13.1087 7.19199 13.4253 7.19199C13.492 7.19199 13.6503 7.20866 13.7503 7.29199C13.8337 7.35866 13.8587 7.45033 13.867 7.51699C13.8587 7.56699 13.8753 7.71699 13.867 7.83366Z" fill="white"/>
</svg>
