<svg width="40" height="40" viewBox="0 0 40 40" fill="none" xmlns="http://www.w3.org/2000/svg">
<circle cx="20" cy="20" r="20" fill="#FF9994"/>
<path d="M15.6496 28.9098C15.6196 28.9098 15.5796 28.9298 15.5496 28.9298C13.6096 27.9698 12.0296 26.3798 11.0596 24.4398C11.0596 24.4098 11.0796 24.3698 11.0796 24.3398C12.2996 24.6998 13.5596 24.9698 14.8096 25.1798C15.0296 26.4398 15.2896 27.6898 15.6496 28.9098Z" fill="white"/>
<path d="M28.94 24.4498C27.95 26.4398 26.3 28.0498 24.29 29.0198C24.67 27.7498 24.99 26.4698 25.2 25.1798C26.46 24.9698 27.7 24.6998 28.92 24.3398C28.91 24.3798 28.94 24.4198 28.94 24.4498Z" fill="white"/>
<path d="M29.02 15.71C27.76 15.33 26.49 15.02 25.2 14.8C24.99 13.51 24.68 12.23 24.29 10.98C26.36 11.97 28.03 13.64 29.02 15.71Z" fill="white"/>
<path d="M15.6505 11.0901C15.2905 12.3101 15.0305 13.5501 14.8205 14.8101C13.5305 15.0101 12.2505 15.3301 10.9805 15.7101C11.9505 13.7001 13.5605 12.0501 15.5505 11.0601C15.5805 11.0601 15.6205 11.0901 15.6505 11.0901Z" fill="white"/>
<path d="M23.4898 14.59C21.1698 14.33 18.8298 14.33 16.5098 14.59C16.7598 13.22 17.0798 11.85 17.5298 10.53C17.5498 10.45 17.5398 10.39 17.5498 10.31C18.3398 10.12 19.1498 10 19.9998 10C20.8398 10 21.6598 10.12 22.4398 10.31C22.4498 10.39 22.4498 10.45 22.4698 10.53C22.9198 11.86 23.2398 13.22 23.4898 14.59Z" fill="white"/>
<path d="M14.59 23.4898C13.21 23.2398 11.85 22.9198 10.53 22.4698C10.45 22.4498 10.39 22.4598 10.31 22.4498C10.12 21.6598 10 20.8498 10 19.9998C10 19.1598 10.12 18.3398 10.31 17.5598C10.39 17.5498 10.45 17.5498 10.53 17.5298C11.86 17.0898 13.21 16.7598 14.59 16.5098C14.34 18.8298 14.34 21.1698 14.59 23.4898Z" fill="white"/>
<path d="M30.0002 19.9998C30.0002 20.8498 29.8802 21.6598 29.6902 22.4498C29.6102 22.4598 29.5502 22.4498 29.4702 22.4698C28.1402 22.9098 26.7802 23.2398 25.4102 23.4898C25.6702 21.1698 25.6702 18.8298 25.4102 16.5098C26.7802 16.7598 28.1502 17.0798 29.4702 17.5298C29.5502 17.5498 29.6102 17.5598 29.6902 17.5598C29.8802 18.3498 30.0002 19.1598 30.0002 19.9998Z" fill="white"/>
<path d="M23.4898 25.4102C23.2398 26.7902 22.9198 28.1502 22.4698 29.4702C22.4498 29.5502 22.4498 29.6102 22.4398 29.6902C21.6598 29.8802 20.8398 30.0002 19.9998 30.0002C19.1498 30.0002 18.3398 29.8802 17.5498 29.6902C17.5398 29.6102 17.5498 29.5502 17.5298 29.4702C17.0898 28.1402 16.7598 26.7902 16.5098 25.4102C17.6698 25.5402 18.8298 25.6302 19.9998 25.6302C21.1698 25.6302 22.3398 25.5402 23.4898 25.4102Z" fill="white"/>
<path d="M23.7633 23.7633C21.2622 24.0789 18.7378 24.0789 16.2367 23.7633C15.9211 21.2622 15.9211 18.7378 16.2367 16.2367C18.7378 15.9211 21.2622 15.9211 23.7633 16.2367C24.0789 18.7378 24.0789 21.2622 23.7633 23.7633Z" fill="white"/>
</svg>
