<svg width="40" height="40" viewBox="0 0 40 40" fill="none" xmlns="http://www.w3.org/2000/svg">
<circle cx="20" cy="20" r="20" fill="#FFC086"/>
<path d="M23.59 13H23.25V10C23.25 9.59 22.91 9.25 22.5 9.25C22.09 9.25 21.75 9.59 21.75 10V13H18.25V10C18.25 9.59 17.91 9.25 17.5 9.25C17.09 9.25 16.75 9.59 16.75 10V13H16.41C15.36 13 14.5 13.86 14.5 14.91V20C14.5 22.2 16 24 18.5 24H19.25V30C19.25 30.41 19.59 30.75 20 30.75C20.41 30.75 20.75 30.41 20.75 30V24H21.5C24 24 25.5 22.2 25.5 20V14.91C25.5 13.86 24.64 13 23.59 13Z" fill="white"/>
</svg>
