<svg width="40" height="40" viewBox="0 0 40 40" fill="none" xmlns="http://www.w3.org/2000/svg">
<circle cx="20" cy="20" r="20" fill="#FFA9A9"/>
<path d="M23.78 10H16.22C12.44 10 11.5 11.01 11.5 15.04V26.3C11.5 28.96 12.96 29.59 14.73 27.69L14.74 27.68C15.56 26.81 16.81 26.88 17.52 27.83L18.53 29.18C19.34 30.25 20.65 30.25 21.46 29.18L22.47 27.83C23.19 26.87 24.44 26.8 25.26 27.68C27.04 29.58 28.49 28.95 28.49 26.29V15.04C28.5 11.01 27.56 10 23.78 10ZM15.78 20C15.23 20 14.78 19.55 14.78 19C14.78 18.45 15.23 18 15.78 18C16.33 18 16.78 18.45 16.78 19C16.78 19.55 16.33 20 15.78 20ZM15.78 16C15.23 16 14.78 15.55 14.78 15C14.78 14.45 15.23 14 15.78 14C16.33 14 16.78 14.45 16.78 15C16.78 15.55 16.33 16 15.78 16ZM24.23 19.75H18.73C18.32 19.75 17.98 19.41 17.98 19C17.98 18.59 18.32 18.25 18.73 18.25H24.23C24.64 18.25 24.98 18.59 24.98 19C24.98 19.41 24.64 19.75 24.23 19.75ZM24.23 15.75H18.73C18.32 15.75 17.98 15.41 17.98 15C17.98 14.59 18.32 14.25 18.73 14.25H24.23C24.64 14.25 24.98 14.59 24.98 15C24.98 15.41 24.64 15.75 24.23 15.75Z" fill="white"/>
</svg>
