<svg width="40" height="40" viewBox="0 0 40 40" fill="none" xmlns="http://www.w3.org/2000/svg">
<circle cx="20" cy="20" r="20" fill="#7DE2B1"/>
<path d="M20.75 23.9198H21.4C22.05 23.9198 22.59 23.3398 22.59 22.6398C22.59 21.7698 22.28 21.5998 21.77 21.4198L20.76 21.0698V23.9198H20.75Z" fill="white"/>
<path d="M19.9701 9.89992C14.4501 9.91992 9.98007 14.4099 10.0001 19.9299C10.0201 25.4499 14.5101 29.9199 20.0301 29.8999C25.5501 29.8799 30.0201 25.3899 30.0001 19.8699C29.9801 14.3499 25.4901 9.88992 19.9701 9.89992ZM22.2601 19.9999C23.0401 20.2699 24.0901 20.8499 24.0901 22.6399C24.0901 24.1799 22.8801 25.4199 21.4001 25.4199H20.7501V25.9999C20.7501 26.4099 20.4101 26.7499 20.0001 26.7499C19.5901 26.7499 19.2501 26.4099 19.2501 25.9999V25.4199H18.8901C17.2501 25.4199 15.9201 24.0399 15.9201 22.3399C15.9201 21.9299 16.2601 21.5899 16.6701 21.5899C17.0801 21.5899 17.4201 21.9299 17.4201 22.3399C17.4201 23.2099 18.0801 23.9199 18.8901 23.9199H19.2501V20.5399L17.7401 19.9999C16.9601 19.7299 15.9101 19.1499 15.9101 17.3599C15.9101 15.8199 17.1201 14.5799 18.6001 14.5799H19.2501V13.9999C19.2501 13.5899 19.5901 13.2499 20.0001 13.2499C20.4101 13.2499 20.7501 13.5899 20.7501 13.9999V14.5799H21.1101C22.7501 14.5799 24.0801 15.9599 24.0801 17.6599C24.0801 18.0699 23.7401 18.4099 23.3301 18.4099C22.9201 18.4099 22.5801 18.0699 22.5801 17.6599C22.5801 16.7899 21.9201 16.0799 21.1101 16.0799H20.7501V19.4599L22.2601 19.9999Z" fill="white"/>
<path d="M17.4199 17.3701C17.4199 18.2401 17.7299 18.4101 18.2399 18.5901L19.2499 18.9401V16.0801H18.5999C17.9499 16.0801 17.4199 16.6601 17.4199 17.3701Z" fill="white"/>
</svg>
