<svg width="40" height="40" viewBox="0 0 40 40" fill="none" xmlns="http://www.w3.org/2000/svg">
<circle cx="20" cy="20" r="20" fill="#9EB3FD"/>
<path d="M24.5904 15.41L14.3104 25.69C13.8304 26.17 13.0104 26.06 12.7204 25.45C12.2004 24.38 11.9004 23.17 11.9004 21.9C11.8804 16.38 17.4804 11.66 19.3804 10.21C19.7504 9.93 20.2504 9.93 20.6104 10.21C21.4804 10.87 23.1104 12.24 24.6404 14.04C24.9804 14.44 24.9604 15.04 24.5904 15.41Z" fill="white"/>
<path d="M28.1 21.9098C28.1 26.3698 24.47 29.9998 20 29.9998C18.21 29.9998 16.54 29.4198 15.19 28.4198C14.7 28.0598 14.66 27.3398 15.09 26.9098L25.16 16.8398C25.63 16.3698 26.42 16.4698 26.74 17.0498C27.56 18.5598 28.11 20.1998 28.1 21.9098Z" fill="white"/>
</svg>
