<svg width="40" height="40" viewBox="0 0 40 40" fill="none" xmlns="http://www.w3.org/2000/svg">
<circle cx="20" cy="20" r="20" fill="#A19BF4"/>
<path d="M24.6504 12.79H24.3704C24.2704 12 23.9804 11.37 23.5204 10.9C22.9204 10.3 22.0504 10 20.9304 10H15.3504C13.1004 10 11.8604 11.24 11.8604 13.49C11.8604 14.61 12.1604 15.48 12.7604 16.08C13.3604 16.68 14.2304 16.98 15.3504 16.98H20.9304C22.9304 16.98 24.1304 15.99 24.3704 14.19H24.6504C26.7404 14.19 26.7404 14.47 26.7404 16.28V18.14C26.7404 19.95 26.7404 20.23 24.6504 20.23H20.9304C17.9404 20.23 17.5104 21.65 17.4504 23.03C16.5504 23.09 15.5804 23.51 15.5804 25.11V27.9C15.5804 29.63 16.7204 29.99 17.6704 29.99H18.6004C19.5504 29.99 20.6904 29.63 20.6904 27.9V25.11C20.6904 23.53 19.7404 23.09 18.8404 23.03C18.8904 22.02 19.1804 21.62 20.9204 21.62H24.6404C27.8904 21.62 28.1304 20.3 28.1304 18.13V16.28C28.1404 14.11 27.9004 12.79 24.6504 12.79Z" fill="white"/>
</svg>
