<svg width="40" height="40" viewBox="0 0 40 40" fill="none" xmlns="http://www.w3.org/2000/svg">
<circle cx="20" cy="20" r="20" fill="#FFB4E8"/>
<path d="M16.8201 12.9L15.5401 10.78C15.0601 10 14.1101 9.56003 13.2201 9.82003C11.8801 10.22 11.3601 11.73 12.0301 12.84L13.3501 15.01C13.5001 15.24 13.8101 15.32 14.0401 15.18L16.6501 13.59C16.89 13.44 16.9701 13.13 16.8201 12.9Z" fill="white"/>
<path d="M27.7404 22.2098L24.9304 18.4098C23.9504 17.0898 22.2504 16.4698 20.6504 16.8998C20.6504 16.8898 20.6404 16.8898 20.6404 16.8798L18.9804 14.1498C18.6804 13.6798 18.0604 13.5298 17.5904 13.8198L14.1204 15.9298C13.6404 16.2098 13.4904 16.8398 13.7804 17.3198L15.4304 20.0498C15.4304 20.0498 15.4304 20.0598 15.4404 20.0598C14.3304 21.2898 14.0904 23.0798 14.8304 24.5698L16.9104 28.8098C17.5504 30.1198 19.0604 30.6198 20.3404 29.9598C20.4404 29.9098 20.4704 29.7898 20.4104 29.6898L18.8504 27.1098C18.6304 26.7498 18.7404 26.2898 19.1004 26.0598C19.4604 25.8498 19.9204 25.9598 20.1504 26.3098L21.7204 28.8898C21.7804 28.9798 21.9004 29.0098 21.9904 28.9598L22.9504 28.3798C23.0404 28.3198 23.0704 28.1998 23.0204 28.1098L21.4504 25.5298C21.2404 25.1698 21.3504 24.7098 21.7004 24.4798C22.0704 24.2698 22.5304 24.3798 22.7504 24.7298L24.3204 27.3098C24.3804 27.3998 24.5004 27.4298 24.5904 27.3798L25.5504 26.7998C25.6404 26.7398 25.6704 26.6198 25.6204 26.5298L24.0504 23.9498C23.8404 23.5898 23.9504 23.1298 24.3004 22.8998C24.6704 22.6898 25.1304 22.7998 25.3504 23.1498L26.9304 25.7198C26.9904 25.8098 27.1104 25.8398 27.2004 25.7798C28.3604 24.9498 28.6204 23.3898 27.7404 22.2098Z" fill="white"/>
</svg>
