<svg width="40" height="40" viewBox="0 0 40 40" fill="none" xmlns="http://www.w3.org/2000/svg">
<circle cx="20" cy="20" r="20" fill="#A49DF4"/>
<path d="M28.125 15.6667C28.125 16.0084 27.8417 16.2917 27.5 16.2917H12.5C12.1583 16.2917 11.875 16.0084 11.875 15.6667C11.875 15.3251 12.1583 15.0417 12.5 15.0417H13.35L13.6667 13.5334C13.9667 12.0751 14.5917 10.7334 17.075 10.7334H22.925C25.4083 10.7334 26.0333 12.0751 26.3333 13.5334L26.65 15.0417H27.5C27.8417 15.0417 28.125 15.3251 28.125 15.6667Z" fill="white"/>
<path d="M28.483 20.3832C28.358 19.0082 27.9913 17.5415 25.3163 17.5415H14.683C12.008 17.5415 11.6497 19.0082 11.5163 20.3832L11.0497 25.4582C10.9913 26.0915 11.1997 26.7248 11.633 27.1998C12.0747 27.6832 12.6997 27.9582 13.3663 27.9582H14.933C16.283 27.9582 16.5413 27.1832 16.708 26.6748L16.8747 26.1748C17.0663 25.5998 17.1163 25.4582 17.8663 25.4582H22.133C22.883 25.4582 22.908 25.5415 23.1247 26.1748L23.2913 26.6748C23.458 27.1832 23.7163 27.9582 25.0663 27.9582H26.633C27.2913 27.9582 27.9247 27.6832 28.3663 27.1998C28.7997 26.7248 29.008 26.0915 28.9497 25.4582L28.483 20.3832ZM17.4997 22.1248H14.9997C14.658 22.1248 14.3747 21.8415 14.3747 21.4998C14.3747 21.1582 14.658 20.8748 14.9997 20.8748H17.4997C17.8413 20.8748 18.1247 21.1582 18.1247 21.4998C18.1247 21.8415 17.8413 22.1248 17.4997 22.1248ZM24.9997 22.1248H22.4997C22.158 22.1248 21.8747 21.8415 21.8747 21.4998C21.8747 21.1582 22.158 20.8748 22.4997 20.8748H24.9997C25.3413 20.8748 25.6247 21.1582 25.6247 21.4998C25.6247 21.8415 25.3413 22.1248 24.9997 22.1248Z" fill="white"/>
</svg>
