<svg width="274" height="42" viewBox="0 0 274 42" fill="none" xmlns="http://www.w3.org/2000/svg">
<rect x="32.8687" y="8" width="4.87497" height="21.1249" transform="rotate(90 32.8687 8)" fill="white"/>
<path d="M32.8687 8H37.7436V24.2499H32.8687V8Z" fill="white"/>
<rect x="11.7444" y="12.8748" width="4.87497" height="16.2499" fill="white"/>
<rect x="11.7444" y="34" width="4.87497" height="16.2499" transform="rotate(-90 11.7444 34)" fill="white"/>
<rect x="27.9937" y="24.2504" width="4.87497" height="4.87497" fill="white"/>
<path d="M59.2779 12.6757C61.1113 12.6757 62.642 12.8944 63.8699 13.3317C65.0978 13.769 66.0734 14.3662 66.7967 15.1231C67.5368 15.8632 68.0582 16.721 68.361 17.6966C68.6806 18.6722 68.8404 19.6983 68.8404 20.7748C68.8404 21.8513 68.6638 22.8857 68.3105 23.8782C67.9741 24.8706 67.4274 25.7536 66.6705 26.5274C65.9304 27.2843 64.9464 27.8898 63.7185 28.344C62.5074 28.7813 61.0272 29 59.2779 29H49.9425V12.6757H59.2779ZM53.2982 26.1237H59.2022C60.4133 26.1237 61.4141 25.9807 62.2047 25.6948C63.0121 25.392 63.6512 24.9883 64.1222 24.4837C64.5932 23.9791 64.9296 23.4072 65.1314 22.768C65.3333 22.1288 65.4342 21.4644 65.4342 20.7748C65.4342 20.0851 65.3333 19.4291 65.1314 18.8068C64.9296 18.1844 64.5932 17.6293 64.1222 17.1415C63.6512 16.6537 63.0121 16.2669 62.2047 15.9809C61.4141 15.695 60.4133 15.552 59.2022 15.552H53.2982V26.1237ZM72.5974 12.6757H75.9531V29H72.5974V12.6757ZM89.6841 29.328C88.1703 29.328 86.7994 29.1514 85.5715 28.7982C84.3604 28.4449 83.3092 27.9151 82.4177 27.2086C81.543 26.5022 80.8702 25.6275 80.3992 24.5846C79.9282 23.5417 79.6928 22.3391 79.6928 20.9766C79.6928 19.5973 79.9367 18.3778 80.4244 17.3182C80.9291 16.2416 81.6355 15.3333 82.5438 14.5932C83.469 13.8531 84.5623 13.2981 85.8238 12.928C87.1022 12.5411 88.5151 12.3477 90.0626 12.3477C91.896 12.3477 93.4772 12.6084 94.806 13.1298C96.1348 13.6345 97.1777 14.3493 97.9346 15.2745C98.7083 16.1996 99.1457 17.3013 99.2466 18.5797H96.0171C95.7984 17.9069 95.4368 17.3266 94.9321 16.8388C94.4443 16.3342 93.7968 15.9473 92.9894 15.6782C92.182 15.3922 91.2064 15.2492 90.0626 15.2492C88.5992 15.2492 87.3461 15.4847 86.3032 15.9557C85.2772 16.4267 84.495 17.0911 83.9568 17.9489C83.4185 18.8068 83.1494 19.816 83.1494 20.9766C83.1494 22.1036 83.3849 23.0792 83.8558 23.9034C84.3268 24.7108 85.0501 25.3331 86.0257 25.7705C87.0181 26.2078 88.2796 26.4265 89.8103 26.4265C90.9877 26.4265 92.0222 26.2751 92.9137 25.9723C93.822 25.6527 94.5789 25.2322 95.1845 24.7108C95.79 24.1725 96.2189 23.5754 96.4712 22.9194L97.7832 22.44C97.5646 24.6098 96.7403 26.3003 95.3106 27.5114C93.8977 28.7225 92.0222 29.328 89.6841 29.328ZM96.9254 29C96.9254 28.4786 96.959 27.8814 97.0263 27.2086C97.0936 26.519 97.1777 25.8293 97.2786 25.1397C97.3795 24.4332 97.472 23.7856 97.5561 23.1969H90.0878V21.0523H99.8269V29H96.9254ZM103.84 12.6757H107.196V29H103.84V12.6757ZM114.897 12.6757V26.1994H125.746V29H111.541V12.6757H114.897ZM131.411 25.4425V22.6418H142.21V25.4425H131.411ZM127.349 29L135.019 12.6757H138.652L146.398 29H142.74L136.028 14.2905H137.643L130.982 29H127.349ZM165.323 25.6695L164.263 26.0985V12.6757H167.619V29H164.263L151.067 16.1071L152.127 15.6782V29H148.771V12.6757H152.127L165.323 25.6695ZM180.849 12.6757C182.682 12.6757 184.213 12.8944 185.441 13.3317C186.669 13.769 187.644 14.3662 188.368 15.1231C189.108 15.8632 189.629 16.721 189.932 17.6966C190.251 18.6722 190.411 19.6983 190.411 20.7748C190.411 21.8513 190.235 22.8857 189.881 23.8782C189.545 24.8706 188.998 25.7536 188.241 26.5274C187.501 27.2843 186.517 27.8898 185.289 28.344C184.078 28.7813 182.598 29 180.849 29H171.513V12.6757H180.849ZM174.869 26.1237H180.773C181.984 26.1237 182.985 25.9807 183.776 25.6948C184.583 25.392 185.222 24.9883 185.693 24.4837C186.164 23.9791 186.501 23.4072 186.702 22.768C186.904 22.1288 187.005 21.4644 187.005 20.7748C187.005 20.0851 186.904 19.4291 186.702 18.8068C186.501 18.1844 186.164 17.6293 185.693 17.1415C185.222 16.6537 184.583 16.2669 183.776 15.9809C182.985 15.695 181.984 15.552 180.773 15.552H174.869V26.1237ZM193.689 29V12.6757H203.1C205.287 12.6757 206.943 13.0457 208.07 13.7858C209.214 14.5091 209.786 15.5941 209.786 17.0406C209.786 17.9657 209.559 18.6974 209.105 19.2357C208.651 19.7571 208.003 20.144 207.162 20.3963C206.338 20.6486 205.362 20.8084 204.235 20.8757L204.336 20.6991C205.161 20.7159 205.934 20.7748 206.658 20.8757C207.398 20.9766 208.045 21.1616 208.6 21.4308C209.155 21.6999 209.593 22.0784 209.912 22.5662C210.232 23.0371 210.392 23.6595 210.392 24.4332C210.392 25.4425 210.123 26.2835 209.584 26.9563C209.046 27.6123 208.298 28.1085 207.339 28.4449C206.38 28.7813 205.27 28.9664 204.008 29H193.689ZM197.045 26.2246H203.655C204.715 26.2246 205.531 26.0564 206.102 25.72C206.674 25.3668 206.96 24.8117 206.96 24.0548C206.96 23.4997 206.792 23.096 206.456 22.8437C206.119 22.5914 205.674 22.44 205.118 22.3895C204.563 22.3223 203.966 22.2886 203.327 22.2886H197.045V26.2246ZM197.045 19.5889H202.974C204.034 19.5889 204.849 19.4375 205.421 19.1348C205.993 18.8152 206.279 18.2769 206.279 17.52C206.279 16.7631 205.993 16.2332 205.421 15.9305C204.849 15.6109 204.092 15.4511 203.15 15.4511H197.045V19.5889ZM215.776 25.4425V22.6418H226.575V25.4425H215.776ZM211.714 29L219.384 12.6757H223.018L230.763 29H227.105L220.394 14.2905H222.008L215.347 29H211.714ZM236.492 12.6757V26.1994H247.342V29H233.137V12.6757H236.492ZM250.938 12.6757H254.293V29H250.938V12.6757Z" fill="white"/>
</svg>
