<svg width="40" height="40" viewBox="0 0 40 40" fill="none" xmlns="http://www.w3.org/2000/svg">
<path d="M1.12501 32.0047C1.12501 34.2128 1.97286 35.9888 3.48219 37.5498C4.99114 39.1112 7.03783 39.9884 9.17226 39.9884H18.6857C31.3341 39.9884 40 32.1055 40 19.9981C40 7.8906 31.3341 0 18.6857 0H1.12501C1.12314 0.998778 1.31138 1.98817 1.67962 2.91153C2.04786 3.83489 2.58822 4.67408 3.27032 5.38105C3.95205 6.08802 4.7624 6.6489 5.65412 7.0316C6.54584 7.4143 7.50169 7.61129 8.46728 7.61129H18.2432C25.9192 7.61129 30.9441 12.3557 30.9441 20.0252C30.9441 27.6947 25.923 32.4391 18.2432 32.4391H10.0722L1.12501 32.0047Z" fill="#101828"/>
<path d="M17.6247 32.3926H8.625V39.9573H17.6247V32.3926Z" fill="#D69268"/>
<path d="M8.94722 20.1184V40.0001C7.77201 40.0001 6.60804 39.7608 5.52245 39.2952C4.43648 38.8297 3.45027 38.1477 2.61929 37.2877C1.78832 36.4276 1.12947 35.407 0.679855 34.2835C0.23062 33.16 -0.000374532 31.9559 4.55825e-07 30.7401V10.8623C2.37293 10.8623 4.64873 11.8375 6.3268 13.5734C8.0045 15.3092 8.94722 17.6636 8.94722 20.1184Z" fill="#223D9F"/>
</svg>
