<svg width="24" height="25" viewBox="0 0 24 25" fill="none" xmlns="http://www.w3.org/2000/svg">
<path d="M12 3.5C7.0305 3.5 3 7.5305 3 12.5C3 17.4695 7.0305 21.5 12 21.5C16.9695 21.5 21 17.4695 21 12.5C21 7.5305 16.9718 3.5 12 3.5ZM7.44 12.8022L7.47825 12.7415L9.8205 9.0785C9.82834 9.06646 9.83928 9.05675 9.85216 9.05037C9.86504 9.044 9.8794 9.04121 9.89373 9.04228C9.90806 9.04335 9.92184 9.04826 9.93363 9.05647C9.94542 9.06469 9.95479 9.07593 9.96075 9.089C10.3508 9.96575 10.6898 11.0562 10.5308 11.735C10.4648 12.014 10.2795 12.392 10.0703 12.7415C10.0434 12.7926 10.0141 12.8424 9.9825 12.8907C9.97493 12.9015 9.96479 12.9103 9.95301 12.9161C9.94123 12.922 9.92817 12.9249 9.915 12.9245H7.50975C7.49539 12.9247 7.48125 12.9211 7.46881 12.9139C7.45637 12.9067 7.44611 12.8963 7.43911 12.8838C7.43211 12.8712 7.42863 12.857 7.42906 12.8427C7.42948 12.8283 7.43378 12.8144 7.4415 12.8022H7.44ZM17.8755 14.0623C17.8757 14.0783 17.8712 14.094 17.8625 14.1074C17.8538 14.1209 17.8414 14.1315 17.8267 14.138C17.6445 14.2153 17.0242 14.5017 16.7662 14.8595C16.1077 15.776 15.6053 17.087 14.4803 17.087H9.78975C9.39372 17.0864 9.00169 17.0078 8.63607 16.8556C8.27044 16.7035 7.93838 16.4807 7.65887 16.2002C7.37936 15.9196 7.15788 15.5867 7.00708 15.2205C6.85627 14.8543 6.77911 14.462 6.78 14.066V14.012C6.78 13.9685 6.816 13.9325 6.861 13.9325H9.47475C9.52725 13.9325 9.56475 13.9797 9.561 14.0315C9.5415 14.201 9.57375 14.3757 9.65475 14.534C9.80925 14.849 10.1318 15.0455 10.479 15.0455H11.7735V14.0352H10.4925C10.4775 14.0351 10.4628 14.0308 10.45 14.023C10.4373 14.0151 10.4269 14.0038 10.42 13.9905C10.4131 13.9771 10.4101 13.9622 10.4111 13.9472C10.4121 13.9322 10.4172 13.9178 10.4258 13.9055L10.473 13.838C10.593 13.6648 10.7663 13.3985 10.9388 13.094C11.0558 12.8885 11.1698 12.6695 11.2613 12.449C11.2793 12.41 11.2935 12.3688 11.31 12.329C11.3347 12.2585 11.3602 12.1925 11.3782 12.1273C11.3959 12.0719 11.4122 12.0162 11.427 11.96C11.4698 11.7725 11.4878 11.5745 11.4878 11.3698C11.4878 11.2888 11.4848 11.204 11.4773 11.1245C11.4735 11.0368 11.4623 10.9483 11.4518 10.8605C11.4434 10.782 11.4314 10.7039 11.4157 10.6265C11.3956 10.5086 11.3711 10.3916 11.3423 10.2755L11.3318 10.2305C11.3093 10.1495 11.2898 10.073 11.2643 9.99275C11.1928 9.74631 11.1108 9.50308 11.0182 9.26375C10.986 9.17373 10.9505 9.08492 10.9117 8.9975C10.8577 8.864 10.8023 8.74325 10.752 8.63C10.727 8.58148 10.7035 8.53221 10.6815 8.48225C10.6571 8.42835 10.6313 8.37509 10.6042 8.3225C10.5862 8.28275 10.5645 8.2445 10.5503 8.2085L10.392 7.9175C10.3702 7.87775 10.4062 7.829 10.4497 7.84175L11.4398 8.1095H11.4472L11.577 8.147L11.721 8.1875L11.7735 8.20175V7.6145C11.7735 7.33025 12 7.1 12.2827 7.1C12.3495 7.09982 12.4156 7.11315 12.4771 7.13919C12.5386 7.16522 12.5942 7.20343 12.6405 7.2515C12.7363 7.34809 12.7901 7.47849 12.7905 7.6145V8.4875L12.8962 8.51675C12.9037 8.5205 12.9127 8.52425 12.9195 8.5295C12.945 8.5475 12.9825 8.576 13.0298 8.612C13.0673 8.6405 13.107 8.6765 13.1535 8.71475C13.3016 8.83541 13.4452 8.9615 13.584 9.09275C13.7445 9.242 13.9245 9.41675 14.097 9.611C14.1457 9.6665 14.1922 9.7205 14.241 9.7805C14.2875 9.83975 14.34 9.8975 14.3835 9.9545C14.4428 10.0325 14.5035 10.1135 14.5598 10.1975C14.5845 10.2373 14.6152 10.2785 14.6385 10.3182C14.7105 10.4247 14.772 10.5343 14.8312 10.6445C14.8567 10.6948 14.8815 10.7503 14.9033 10.8043C14.97 10.952 15.0225 11.1012 15.0547 11.2527C15.0654 11.2849 15.0727 11.3181 15.0765 11.3517V11.3593C15.087 11.402 15.0907 11.4493 15.0945 11.4973C15.1156 11.7189 15.0885 11.9425 15.015 12.1527C14.9918 12.2157 14.97 12.2803 14.9415 12.3433C14.8852 12.4708 14.8207 12.6005 14.7435 12.7198C14.718 12.7648 14.6873 12.8113 14.6588 12.8563C14.6265 12.9035 14.592 12.9485 14.5635 12.9912C14.5223 13.048 14.479 13.1033 14.4337 13.157C14.394 13.211 14.3543 13.265 14.3093 13.3138C14.2485 13.3873 14.1892 13.4562 14.1255 13.5222C14.0895 13.5657 14.0505 13.6107 14.0085 13.6497C13.9695 13.6947 13.9275 13.7345 13.8915 13.7705C13.8285 13.8335 13.779 13.8807 13.7355 13.922L13.6328 14.0135C13.6184 14.0279 13.599 14.036 13.5787 14.036H12.7905V15.0455H13.782C14.0033 15.0455 14.214 14.9675 14.385 14.822C14.4428 14.7717 14.6963 14.552 14.997 14.2205C15.0068 14.2092 15.0199 14.2013 15.0345 14.198L17.772 13.4052C17.784 13.4018 17.7967 13.4011 17.809 13.4034C17.8213 13.4056 17.8329 13.4107 17.843 13.4181C17.853 13.4256 17.8611 13.4353 17.8668 13.4465C17.8724 13.4577 17.8754 13.47 17.8755 13.4825V14.0623Z" fill="white"/>
</svg>
