<svg width="24" height="24" viewBox="0 0 24 24" fill="none" xmlns="http://www.w3.org/2000/svg">
<circle r="12" transform="matrix(1 0 0 -1 12 12)" fill="#406AFF"/>
<path d="M16.8138 7.39851L6.96381 11.1968C6.29158 11.4668 6.29547 11.8418 6.84047 12.0091L9.36936 12.798L15.2205 9.10629C15.4971 8.93795 15.7499 9.02851 15.5421 9.21295L10.8016 13.4913H10.8005L10.8016 13.4918L10.6271 16.0985C10.8827 16.0985 10.9955 15.9813 11.1388 15.843L12.3671 14.6485L14.9221 16.5357C15.3933 16.7952 15.7316 16.6618 15.8488 16.0996L17.526 8.19517C17.6977 7.50684 17.2633 7.19517 16.8138 7.39851Z" fill="white"/>
</svg>
