<svg width="24" height="24" viewBox="0 0 24 24" fill="none" xmlns="http://www.w3.org/2000/svg">
<circle r="12" transform="matrix(1 0 0 -1 12 12)" fill="white"/>
<path d="M16.8138 7.39836L6.96381 11.1967C6.29158 11.4667 6.29547 11.8417 6.84047 12.0089L9.36936 12.7978L15.2205 9.10613C15.4971 8.9378 15.7499 9.02836 15.5421 9.2128L10.8016 13.4911H10.8005L10.8016 13.4917L10.6271 16.0984C10.8827 16.0984 10.9955 15.9811 11.1388 15.8428L12.3671 14.6484L14.9221 16.5356C15.3933 16.795 15.7316 16.6617 15.8488 16.0995L17.526 8.19502C17.6977 7.50669 17.2633 7.19502 16.8138 7.39836Z" fill="black"/>
</svg>
