<svg width="24" height="24" viewBox="0 0 24 24" fill="none" xmlns="http://www.w3.org/2000/svg">
<circle r="12" transform="matrix(1 0 0 -1 12 12)" fill="#406AFF"/>
<path d="M17.4167 8.6447C17.0182 8.81657 16.5846 8.94027 16.138 8.98845C16.6017 8.71297 16.9489 8.27777 17.1146 7.76449C16.6795 8.02333 16.2028 8.20483 15.7057 8.30095C15.498 8.07885 15.2467 7.90191 14.9676 7.78117C14.6885 7.66042 14.3875 7.59845 14.0833 7.59913C12.8529 7.59913 11.8633 8.59652 11.8633 9.82048C11.8633 9.99235 11.8841 10.1642 11.918 10.3296C10.0755 10.2332 8.43229 9.35303 7.33984 8.00538C7.14079 8.34537 7.03648 8.73249 7.03776 9.12647C7.03776 9.8973 7.42969 10.577 8.02734 10.9767C7.67514 10.9629 7.33118 10.8661 7.02344 10.6942V10.7215C7.02344 11.8009 7.78646 12.6955 8.80339 12.9012C8.61245 12.9508 8.41603 12.9762 8.21875 12.9767C8.07422 12.9767 7.9375 12.9624 7.79948 12.9429C8.08073 13.8231 8.89974 14.4624 9.875 14.4832C9.11198 15.0809 8.15625 15.4325 7.11849 15.4325C6.93229 15.4325 6.76042 15.4259 6.58203 15.4051C7.56641 16.0366 8.73438 16.4012 9.99219 16.4012C14.0755 16.4012 16.3099 13.0184 16.3099 10.0822C16.3099 9.98584 16.3099 9.88949 16.3034 9.79314C16.7357 9.47673 17.1146 9.0848 17.4167 8.6447Z" fill="white"/>
</svg>
