<svg width="24" height="24" viewBox="0 0 24 24" fill="none" xmlns="http://www.w3.org/2000/svg">
<circle r="12" transform="matrix(1 0 0 -1 12 12)" fill="white"/>
<path d="M17.4167 8.64455C17.0182 8.81642 16.5846 8.94012 16.138 8.9883C16.6017 8.71282 16.9489 8.27762 17.1146 7.76434C16.6795 8.02318 16.2028 8.20468 15.7057 8.3008C15.498 8.0787 15.2467 7.90176 14.9676 7.78101C14.6885 7.66027 14.3875 7.5983 14.0833 7.59897C12.8529 7.59897 11.8633 8.59637 11.8633 9.82033C11.8633 9.9922 11.8841 10.1641 11.918 10.3294C10.0755 10.2331 8.43229 9.35288 7.33984 8.00522C7.14079 8.34522 7.03648 8.73234 7.03776 9.12632C7.03776 9.89715 7.42969 10.5768 8.02734 10.9766C7.67514 10.9627 7.33118 10.8659 7.02344 10.694V10.7214C7.02344 11.8008 7.78646 12.6953 8.80339 12.9011C8.61245 12.9507 8.41603 12.976 8.21875 12.9766C8.07422 12.9766 7.9375 12.9623 7.79948 12.9427C8.08073 13.8229 8.89974 14.4623 9.875 14.4831C9.11198 15.0807 8.15625 15.4323 7.11849 15.4323C6.93229 15.4323 6.76042 15.4258 6.58203 15.405C7.56641 16.0365 8.73438 16.4011 9.99219 16.4011C14.0755 16.4011 16.3099 13.0182 16.3099 10.082C16.3099 9.98569 16.3099 9.88934 16.3034 9.79298C16.7357 9.47658 17.1146 9.08465 17.4167 8.64455Z" fill="black"/>
</svg>
