<svg width="1280" height="120" viewBox="0 0 1280 120" fill="none" xmlns="http://www.w3.org/2000/svg">
<path fill-rule="evenodd" clip-rule="evenodd" d="M960.053 119.928C960.023 119.99 959.949 120.017 959.887 119.988L891.838 88.3856H639.999L640.121 119.874C640.122 119.944 640.066 120 639.997 120C639.928 120 639.872 119.944 639.871 119.875L639.749 88.3856H387.924L320.119 119.988C320.057 120.017 319.982 119.99 319.953 119.928C319.924 119.865 319.951 119.791 320.014 119.762L387.333 88.3856H135.92L0.15332 119.997C0.0859375 120.012 0.0187988 119.971 0.00317383 119.903C-0.0124512 119.836 0.0292969 119.769 0.0965576 119.753L134.818 88.3856H0.346436C0.277344 88.3856 0.221436 88.3297 0.221436 88.2606C0.221436 88.1916 0.277344 88.1356 0.346436 88.1356H135.891L214.955 69.7269H4.1582L0.365479 70.3155C0.297241 70.3261 0.233398 70.2793 0.222778 70.2111C0.212158 70.1429 0.258911 70.079 0.327148 70.0684L2.52795 69.7269H0.346436C0.277344 69.7269 0.221436 69.671 0.221436 69.6019C0.221436 69.5329 0.277344 69.4769 0.346436 69.4769H4.13904L89.7528 56.1918H0.346436C0.277344 56.1918 0.221436 56.1358 0.221436 56.0668C0.221436 55.9977 0.277344 55.9418 0.346436 55.9418H91.3639L155.917 45.9247H0.346436C0.277344 45.9247 0.221436 45.8687 0.221436 45.7997C0.221436 45.7307 0.277344 45.6747 0.346436 45.6747H157.528L207.821 37.8705H66.033L0.363159 45.512C0.294556 45.52 0.232544 45.4708 0.224609 45.4023C0.216553 45.3337 0.265625 45.2716 0.334229 45.2636L63.87 37.8705H0.346436C0.277344 37.8705 0.221436 37.8145 0.221436 37.7455C0.221436 37.6765 0.277344 37.6205 0.346436 37.6205H66.0184L119.629 31.3822H0.346436C0.277344 31.3822 0.221436 31.3262 0.221436 31.2572C0.221436 31.1882 0.277344 31.1322 0.346436 31.1322H121.778L165.506 26.0438H49.6564L0.348267 30.6334C0.279541 30.6398 0.218506 30.5892 0.212158 30.5205C0.205811 30.4518 0.256348 30.3909 0.325073 30.3845L46.9589 26.0438H0.346436C0.277344 26.0438 0.221436 25.9879 0.221436 25.9188C0.221436 25.8498 0.277344 25.7938 0.346436 25.7938H49.6448L94.9742 21.5746H0.346436C0.277344 21.5746 0.221436 21.5186 0.221436 21.4496C0.221436 21.3806 0.277344 21.3246 0.346436 21.3246H97.6602L135.761 17.7782H38.2428L0.359619 20.7166C0.290771 20.7219 0.230713 20.6705 0.225342 20.6016C0.219971 20.5328 0.271484 20.4727 0.340332 20.4673L35.01 17.7782H0.346436C0.277344 17.7782 0.221436 17.7222 0.221436 17.6532C0.221436 17.5842 0.277344 17.5282 0.346436 17.5282H38.2332L77.0996 14.5136H0.346436C0.277344 14.5136 0.221436 14.4576 0.221436 14.3886C0.221436 14.3195 0.277344 14.2636 0.346436 14.2636H80.3228L113.681 11.6762H29.7922L0.344482 13.6337C0.275635 13.6383 0.216064 13.5861 0.211426 13.5173C0.206909 13.4484 0.259033 13.3888 0.327881 13.3842L26.0231 11.6762H0.346436C0.277344 11.6762 0.221436 11.6202 0.221436 11.5512C0.221436 11.4821 0.277344 11.4262 0.346436 11.4262H29.7839L63.4587 9.18763H0.346558C0.277466 9.18763 0.221558 9.13167 0.221558 9.06263C0.221558 8.99359 0.277466 8.93763 0.346558 8.93763H67.2196L96.5864 6.98548H23.3097L0.349976 8.32077C0.281128 8.32478 0.221924 8.27216 0.218018 8.20324C0.213989 8.13432 0.266602 8.0752 0.335449 8.0712L19.0038 6.98548H0.346558C0.277466 6.98548 0.221558 6.92952 0.221558 6.86048C0.221558 6.82571 0.235718 6.79425 0.258667 6.77159C0.28125 6.74927 0.312256 6.73548 0.346558 6.73548H23.3025L52.6959 5.02602H0.346558C0.323975 5.02602 0.302734 5.02003 0.284424 5.00957C0.268433 5.0004 0.254639 4.98779 0.244141 4.97275C0.229858 4.95245 0.221558 4.9277 0.221558 4.90102C0.221558 4.83198 0.277466 4.77602 0.346558 4.77602H56.9946L82.9124 3.26869H18.1592L0.359741 4.18899C0.290771 4.19255 0.232056 4.13956 0.228394 4.07061C0.224854 4.00166 0.277832 3.94289 0.346802 3.93932L13.3175 3.26869H0.346558C0.277466 3.26869 0.221558 3.21273 0.221558 3.14369C0.221558 3.07465 0.277466 3.01869 0.346558 3.01869H18.1528L43.9344 1.68569H0.346558C0.277466 1.68569 0.221558 1.62973 0.221558 1.56069C0.221558 1.49165 0.277466 1.43569 0.346558 1.43569H48.7697L71.6804 0.251122H13.9972L13.9882 0.251869L0.34314 0.885803C0.27417 0.889008 0.215698 0.835701 0.212524 0.766739C0.209351 0.697777 0.262573 0.639282 0.331543 0.636078L8.61731 0.251122H0.346558C0.277466 0.251122 0.221558 0.19516 0.221558 0.126122C0.221558 0.0570831 0.277466 0.00112152 0.346558 0.00112152H76.5157L76.5342 0.000167847C76.5421 -0.000244141 76.5499 9.91821e-05 76.5575 0.00112152H264.203C264.206 0.000976562 264.21 0.000984192 264.213 0.00112152H1014.86C1014.86 0.000350952 1014.87 0.000236511 1014.88 0.000831604L1014.88 0.00112152H1202.53C1202.53 0.000663757 1202.54 0.000572205 1202.54 0.000869751L1202.55 0.00112152H1278.5C1278.57 0.00112152 1278.63 0.0570831 1278.63 0.126122C1278.63 0.19516 1278.57 0.251122 1278.5 0.251122H1207.38L1230.3 1.43569H1278.5C1278.57 1.43569 1278.63 1.49165 1278.63 1.56069C1278.63 1.62973 1278.57 1.68569 1278.5 1.68569H1235.14L1260.93 3.01869H1278.5C1278.57 3.01869 1278.63 3.07465 1278.63 3.14369C1278.63 3.21273 1278.57 3.26869 1278.5 3.26869H1265.77L1278.51 3.92712C1278.58 3.93068 1278.63 3.98946 1278.62 4.0584C1278.62 4.12734 1278.56 4.18034 1278.49 4.17678L1260.92 3.26869H1196.17L1222.09 4.77602H1278.5C1278.57 4.77602 1278.63 4.83198 1278.63 4.90102C1278.63 4.97005 1278.57 5.02602 1278.5 5.02602H1226.39L1255.79 6.73548H1278.5C1278.57 6.73548 1278.63 6.79144 1278.63 6.86048C1278.63 6.92952 1278.57 6.98548 1278.5 6.98548H1260.09L1278.51 8.05606C1278.58 8.06007 1278.63 8.11919 1278.62 8.1881C1278.62 8.25702 1278.56 8.30965 1278.49 8.30563L1255.79 6.98548H1182.54L1211.92 8.93763H1278.5C1278.57 8.93763 1278.63 8.99359 1278.63 9.06263C1278.63 9.13167 1278.57 9.18763 1278.5 9.18763H1215.68L1249.37 11.4262H1278.5C1278.57 11.4262 1278.62 11.4821 1278.62 11.5512C1278.62 11.6202 1278.57 11.6762 1278.5 11.6762H1253.14L1278.5 13.3615C1278.57 13.3661 1278.63 13.4257 1278.62 13.4946C1278.62 13.5634 1278.56 13.6156 1278.49 13.611L1249.37 11.6762H1165.5L1198.88 14.2636H1278.5C1278.57 14.2636 1278.62 14.3195 1278.62 14.3886C1278.62 14.4576 1278.57 14.5136 1278.5 14.5136H1202.1L1240.99 17.5282H1278.5C1278.57 17.5282 1278.62 17.5842 1278.62 17.6532C1278.62 17.7222 1278.57 17.7782 1278.5 17.7782H1244.22L1278.51 20.4363C1278.58 20.4417 1278.63 20.5018 1278.62 20.5706C1278.62 20.6395 1278.56 20.6909 1278.49 20.6856L1240.98 17.7782H1143.44L1181.57 21.3246H1278.5C1278.57 21.3246 1278.62 21.3806 1278.62 21.4496C1278.62 21.5186 1278.57 21.5746 1278.5 21.5746H1184.26L1229.62 25.7938H1278.5C1278.57 25.7938 1278.62 25.8498 1278.62 25.9188C1278.62 25.9879 1278.57 26.0438 1278.5 26.0438H1232.31L1278.51 30.3413C1278.58 30.3477 1278.63 30.4086 1278.62 30.4773C1278.62 30.5461 1278.56 30.5966 1278.49 30.5902L1229.61 26.0438H1113.77L1157.54 31.1322H1278.5C1278.57 31.1322 1278.62 31.1882 1278.62 31.2572C1278.62 31.3262 1278.57 31.3822 1278.5 31.3822H1159.69L1213.35 37.6205H1278.5C1278.57 37.6205 1278.62 37.6765 1278.62 37.7455C1278.62 37.8145 1278.57 37.8705 1278.5 37.8705H1215.5L1278.51 45.1966C1278.58 45.2046 1278.63 45.2666 1278.62 45.3352C1278.62 45.4037 1278.55 45.4529 1278.49 45.4449L1213.33 37.8705H1071.54L1121.89 45.6747H1278.5C1278.57 45.6747 1278.62 45.7307 1278.62 45.7997C1278.62 45.8687 1278.57 45.9247 1278.5 45.9247H1123.51L1188.14 55.9418H1278.5C1278.57 55.9418 1278.62 55.9977 1278.62 56.0668C1278.62 56.1358 1278.57 56.1918 1278.5 56.1918H1189.75L1275.47 69.4769H1278.5C1278.57 69.4769 1278.62 69.5329 1278.62 69.6019C1278.62 69.671 1278.57 69.7269 1278.5 69.7269H1277.08L1278.52 69.9497C1278.59 69.9602 1278.63 70.0241 1278.62 70.0923C1278.61 70.1605 1278.55 70.2073 1278.48 70.1967L1275.45 69.7269H1064.66L1143.86 88.1356H1278.5C1278.57 88.1356 1278.62 88.1916 1278.62 88.2606C1278.62 88.3297 1278.57 88.3856 1278.5 88.3856H1144.94L1279.9 119.753C1279.97 119.769 1280.01 119.836 1280 119.903C1279.98 119.97 1279.91 120.012 1279.85 119.997L1143.84 88.3856H892.431L959.992 119.762C960.054 119.791 960.082 119.865 960.053 119.928ZM1069.93 37.6205H1211.18L1157.52 31.3822H1029.68L1069.93 37.6205ZM1068.3 37.6205H926.517L899.676 31.3822H1028.05L1068.3 37.6205ZM927.592 37.8705H1069.91L1120.26 45.6747H961.171L927.592 37.8705ZM925.412 37.6205L898.571 31.3822H769.689L783.121 37.6205H925.412ZM783.659 37.8705H926.488L960.067 45.6747H800.464L783.659 37.8705ZM782.528 37.6205L769.095 31.3822H639.778L639.802 37.6205H782.528ZM639.803 37.8705H783.066L799.87 45.6747H639.833L639.803 37.8705ZM639.552 37.6205L639.528 31.3822H510.228L496.844 37.6205H639.552ZM496.307 37.8705H639.553L639.583 45.6747H479.563L496.307 37.8705ZM496.252 37.6205L509.636 31.3822H380.744L353.952 37.6205H496.252ZM352.878 37.8705H495.715L478.971 45.6747H319.359L352.878 37.8705ZM352.849 37.6205L379.642 31.3822H251.264L211.062 37.6205H352.849ZM209.451 37.8705H351.775L318.257 45.6747H159.159L209.451 37.8705ZM209.432 37.6205L249.633 31.3822H121.792L68.1814 37.6205H209.432ZM387.869 88.1356H136.994L216.057 69.7269H427.366L387.869 88.1356ZM427.902 69.4769H217.131L274.19 56.1918H456.406L427.902 69.4769ZM456.943 55.9418H275.263L318.286 45.9247H478.435L456.943 55.9418ZM274.161 55.9418L317.183 45.9247H157.547L92.9941 55.9418H274.161ZM510.173 31.1322H381.818L403.672 26.0438H521.09L510.173 31.1322ZM380.716 31.1322L402.57 26.0438H285.666L252.875 31.1322H380.716ZM521.626 25.7938H404.746L422.867 21.5746H530.679L521.626 25.7938ZM403.643 25.7938L421.765 21.5746H314.467L287.277 25.7938H403.643ZM531.215 21.3246H423.941L439.172 17.7782H538.824L531.215 21.3246ZM422.839 21.3246L438.07 17.7782H338.932L316.078 21.3246H422.839ZM539.361 17.5282H440.246L453.194 14.5136H545.829L539.361 17.5282ZM439.144 17.5282L452.091 14.5136H359.971L340.543 17.5282H439.144ZM546.365 14.2636H454.267L465.38 11.6762H551.917L546.365 14.2636ZM453.165 14.2636L464.278 11.6762H378.256L361.582 14.2636H453.165ZM552.453 11.4262H466.454L476.068 9.18763H557.256L552.453 11.4262ZM465.351 11.4262L474.966 9.18763H394.293L379.867 11.4262H465.351ZM557.792 8.93763H477.142L485.526 6.98548H561.981L557.792 8.93763ZM476.039 8.93763L484.424 6.98548H408.484L395.904 8.93763H476.039ZM562.517 6.73548H486.6L493.942 5.02602H566.185L562.517 6.73548ZM485.497 6.73548L492.839 5.02602H421.111L410.095 6.73548H485.497ZM566.721 4.77602H495.016L501.489 3.26869H569.955L566.721 4.77602ZM493.913 4.77602L500.387 3.26869H432.436L422.723 4.77602H493.913ZM570.492 3.01869H502.563L508.288 1.68569H573.352L570.492 3.01869ZM501.461 3.01869L507.186 1.68569H442.638L434.047 3.01869H501.461ZM573.888 1.43569H509.362L514.45 0.251122H576.43L573.888 1.43569ZM508.259 1.43569L513.347 0.251122H451.882L444.249 1.43569H508.259ZM216.029 69.4769L273.087 56.1918H91.3831L5.76929 69.4769H216.029ZM1195.64 14.2636L1162.26 11.6762H1077.84L1105.65 14.2636H1195.64ZM1108.34 14.5136H1198.87L1237.76 17.5282H1140.75L1108.34 14.5136ZM1102.96 14.2636L1075.14 11.6762H990.186L1012.44 14.2636H1102.96ZM1014.59 14.5136H1105.64L1138.05 17.5282H1040.52L1014.59 14.5136ZM1010.28 14.2636L988.021 11.6762H902.532L919.226 14.2636H1010.28ZM920.839 14.5136H1012.43L1038.36 17.5282H940.29L920.839 14.5136ZM917.594 14.2636L900.899 11.6762H814.888L826.021 14.2636H917.594ZM827.096 14.5136H919.207L938.658 17.5282H840.067L827.096 14.5136ZM824.916 14.2636L813.784 11.6762H727.256L732.828 14.2636H824.916ZM733.366 14.5136H825.992L838.963 17.5282H739.857L733.366 14.5136ZM732.234 14.2636L726.663 11.6762H639.701L639.711 14.2636H732.234ZM639.712 14.5136H732.772L739.264 17.5282H639.724L639.712 14.5136ZM639.461 14.2636L639.451 11.6762H552.508L546.957 14.2636H639.461ZM546.421 14.5136H639.462L639.474 17.5282H539.953L546.421 14.5136ZM359.951 14.2636L376.625 11.6762H291.143L268.907 14.2636H359.951ZM266.759 14.5136H358.34L338.913 17.5282H240.852L266.759 14.5136ZM266.745 14.2636L288.98 11.6762H204.016L176.218 14.2636H266.745ZM173.532 14.5136H264.596L238.689 17.5282H141.144L173.532 14.5136ZM173.521 14.2636L201.318 11.6762H116.914L83.5555 14.2636H173.521ZM80.3324 14.5136H170.835L138.447 17.5282H41.4659L80.3324 14.5136ZM123.941 31.1322L167.669 26.0438H284.036L251.245 31.1322H123.941ZM169.818 25.7938H285.647L312.837 21.5746H206.077L169.818 25.7938ZM510.765 31.1322L521.682 26.0438H639.507L639.527 31.1322H510.765ZM522.218 25.7938H639.506L639.49 21.5746H531.271L522.218 25.7938ZM639.777 31.1322L639.757 26.0438H757.6L768.557 31.1322H639.777ZM639.756 25.7938H757.062L747.977 21.5746H639.74L639.756 25.7938ZM769.15 31.1322L758.194 26.0438H875.602L897.496 31.1322H769.15ZM757.655 25.7938H874.527L856.373 21.5746H748.57L757.655 25.7938ZM898.6 31.1322L876.707 26.0438H993.601L1026.43 31.1322H898.6ZM875.631 25.7938H991.988L964.765 21.5746H857.477L875.631 25.7938ZM1028.06 31.1322L995.234 26.0438H1111.61L1155.37 31.1322H1028.06ZM993.621 25.7938H1109.46L1073.16 21.5746H966.398L993.621 25.7938ZM1226.92 25.7938H1111.62L1075.33 21.5746H1181.56L1226.92 25.7938ZM52.3422 25.7938H167.655L203.914 21.5746H97.6718L52.3422 25.7938ZM1042.67 17.7782H1140.74L1178.87 21.3246H1073.18L1042.67 17.7782ZM941.903 17.7782H1040.51L1071.01 21.3246H964.785L941.903 17.7782ZM841.143 17.7782H940.271L963.152 21.3246H856.402L841.143 17.7782ZM740.396 17.7782H840.038L855.297 21.3246H748.032L740.396 17.7782ZM639.725 17.7782H739.802L747.438 21.3246H639.739L639.725 17.7782ZM539.416 17.7782H639.475L639.489 21.3246H531.807L539.416 17.7782ZM238.703 17.7782H337.302L314.448 21.3246H208.226L238.703 17.7782ZM138.458 17.7782H236.54L206.063 21.3246H100.358L138.458 17.7782ZM53.6113 1.43569L76.5222 0.251122H134.798L114.43 1.43569H53.6113ZM139.097 0.251503L139.102 0.251122H197.893L180.073 1.43569H118.736L139.097 0.251503ZM201.646 0.252205C201.65 0.251976 201.653 0.251617 201.656 0.251122H260.979L245.707 1.43569H183.843L201.646 0.252205ZM248.939 1.43569L264.211 0.251122H324.064L311.337 1.43569H248.939ZM314.035 1.43569L326.761 0.251122H387.165L376.985 1.43569H314.035ZM389.326 0.251328L389.328 0.251122H450.252L442.618 1.43569H379.148L389.326 0.251328ZM574.48 1.43569L577.021 0.251122H639.407L639.411 1.43569H574.48ZM639.661 1.43569L639.657 0.251122H702.062L704.613 1.43569H639.661ZM705.206 1.43569L702.655 0.251122H764.626L769.723 1.43569H705.206ZM770.827 1.43569L765.73 0.251122H827.184L834.827 1.43569H770.827ZM836.459 1.43569L828.816 0.251122H889.748L899.937 1.43569H836.459ZM902.102 1.43569L891.913 0.251122L952.303 0.251114L965.039 1.43569H902.102ZM967.738 1.43569L955.002 0.251122H1014.87L1030.16 1.43569H967.738ZM1033.39 1.43569L1018.11 0.251122H1077.41L1077.42 0.25164L1095.24 1.43569H1033.39ZM1099.01 1.43569L1081.18 0.251122H1139.97C1139.97 0.251541 1139.97 0.251854 1139.98 0.252037L1160.33 1.43569H1099.01ZM1164.64 1.43569L1144.27 0.251122H1202.54L1225.46 1.43569H1164.64ZM1191.87 3.01869H1256.09L1230.3 1.68569H1168.94L1191.87 3.01869ZM1187.56 3.01869H1122.83L1102.77 1.68569H1164.63L1187.56 3.01869ZM1126.6 3.26869H1191.86L1217.79 4.77602H1149.28L1126.6 3.26869ZM1119.06 3.01869L1099 1.68569H1036.62L1053.81 3.01869H1119.06ZM1057.04 3.26869H1122.83L1145.51 4.77602H1076.48L1057.04 3.26869ZM1050.58 3.01869L1033.38 1.68569H970.426L984.757 3.01869H1050.58ZM987.445 3.26869H1053.8L1073.25 4.77602H1003.65L987.445 3.26869ZM982.058 3.01869L967.726 1.68569H904.253L915.719 3.01869H982.058ZM917.869 3.26869H984.746L1000.95 4.77602H930.834L917.869 3.26869ZM913.554 3.01869L902.088 1.68569H838.072L846.673 3.01869H913.554ZM848.286 3.26869H915.704L928.669 4.77602H858.011L848.286 3.26869ZM845.04 3.01869L836.44 1.68569H771.903L777.638 3.01869H845.04ZM778.714 3.26869H846.654L856.379 4.77602H785.199L778.714 3.26869ZM776.534 3.01869L770.798 1.68569H705.744L708.615 3.01869H776.534ZM709.153 3.26869H777.609L784.095 4.77602H712.399L709.153 3.26869ZM708.021 3.01869L705.151 1.68569H639.662L639.667 3.01869H708.021ZM639.668 3.26869H708.56L711.805 4.77602H639.674L639.668 3.26869ZM639.417 3.01869L639.412 1.68569H573.943L571.083 3.01869H639.417ZM570.547 3.26869H639.418L639.424 4.77602H567.313L570.547 3.26869ZM432.417 3.01869L441.007 1.68569H377L365.544 3.01869H432.417ZM363.396 3.26869H430.806L421.092 4.77602H350.442L363.396 3.26869ZM363.381 3.01869L374.837 1.68569H311.349L297.028 3.01869H363.381ZM294.342 3.26869H361.233L348.279 4.77602H278.148L294.342 3.26869ZM294.33 3.01869L308.651 1.68569H245.716L228.531 3.01869H294.33ZM225.307 3.26869H291.644L275.45 4.77602H205.874L225.307 3.26869ZM225.298 3.01869L242.484 1.68569H180.082L160.029 3.01869H225.298ZM156.268 3.26869H222.075L202.641 4.77602H133.593L156.268 3.26869ZM156.26 3.01869L176.313 1.68569H114.437L91.5168 3.01869H156.26ZM87.2181 3.26869H152.499L129.824 4.77602H61.3004L87.2181 3.26869ZM87.2111 3.01869L110.131 1.68569H48.7761L22.9945 3.01869H87.2111ZM1178.78 6.73548H1251.49L1222.09 5.02602H1153.05L1178.78 6.73548ZM1175 6.73548H1101.76L1079.71 5.02602H1149.28L1175 6.73548ZM1104.99 6.98548H1178.77L1208.15 8.93763H1130.17L1104.99 6.98548ZM1098.53 6.73548L1076.47 5.02602H1006.34L1024.72 6.73548H1098.53ZM1027.41 6.98548H1101.75L1126.93 8.93763H1048.39L1027.41 6.98548ZM1022.02 6.73548L1003.64 5.02602H932.985L947.689 6.73548H1022.02ZM949.839 6.98548H1024.71L1045.69 8.93763H966.631L949.839 6.98548ZM945.524 6.73548L930.82 5.02602H859.624L870.654 6.73548H945.524ZM872.267 6.98548H947.674L964.466 8.93763H884.862L872.267 6.98548ZM869.022 6.73548L857.992 5.02602H786.275L793.63 6.73548H869.022ZM794.706 6.98548H870.635L883.23 8.93763H803.105L794.706 6.98548ZM792.526 6.73548L785.171 5.02602H712.937L716.618 6.73548H792.526ZM717.156 6.98548H793.601L802.001 8.93763H721.36L717.156 6.98548ZM716.024 6.73548L712.343 5.02602H639.675L639.682 6.73548H716.024ZM639.683 6.98548H716.563L720.766 8.93763H639.69L639.683 6.98548ZM639.432 6.73548L639.425 5.02602H566.777L563.109 6.73548H639.432ZM562.573 6.98548H639.433L639.44 8.93763H558.384L562.573 6.98548ZM408.465 6.73548L419.481 5.02602H348.293L333.603 6.73548H408.465ZM331.454 6.98548H406.854L394.273 8.93763H314.678L331.454 6.98548ZM331.44 6.73548L346.13 5.02602H275.462L257.096 6.73548H331.44ZM254.411 6.98548H329.291L312.515 8.93763H233.438L254.411 6.98548ZM254.399 6.73548L272.765 5.02602H202.651L180.612 6.73548H254.399ZM177.389 6.98548H251.713L230.74 8.93763H152.22L177.389 6.98548ZM177.379 6.73548L199.418 5.02602H129.832L104.116 6.73548H177.379ZM100.356 6.98548H174.156L148.988 8.93763H70.9888L100.356 6.98548ZM100.347 6.73548L126.063 5.02602H57.0018L27.6083 6.73548H100.347ZM206.702 11.4262H291.129L310.366 9.18763H230.752L206.702 11.4262ZM293.292 11.4262H378.237L392.662 9.18763H312.529L293.292 11.4262ZM553.045 11.4262H639.45L639.441 9.18763H557.848L553.045 11.4262ZM639.7 11.4262H726.125L721.304 9.18763H639.691L639.7 11.4262ZM726.718 11.4262H812.708L803.076 9.18763H721.898L726.718 11.4262ZM813.812 11.4262H899.286L884.843 9.18763H804.181L813.812 11.4262ZM900.919 11.4262H985.871L966.616 9.18763H886.475L900.919 11.4262ZM988.036 11.4262H1072.45L1048.38 9.18763H968.781L988.036 11.4262ZM1159.04 11.4262H1075.15L1051.08 9.18763H1130.16L1159.04 11.4262ZM1245.6 11.4262H1162.27L1133.39 9.18763H1211.91L1245.6 11.4262ZM120.137 11.4262H204.004L228.054 9.18763H148.997L120.137 11.4262ZM145.764 9.18763L116.904 11.4262H33.5531L67.2279 9.18763H145.764ZM457.534 55.9418L479.026 45.9247H639.584L639.623 55.9418H457.534ZM639.873 55.9418L639.834 45.9247H800.409L821.978 55.9418H639.873ZM822.572 55.9418L801.002 45.9247H961.142L1004.24 55.9418H822.572ZM1005.35 55.9418L962.247 45.9247H1121.87L1186.51 55.9418H1005.35ZM891.893 88.1356H1142.76L1063.55 69.7269H852.254L891.893 88.1356ZM388.461 88.1356H639.748L639.677 69.7269H427.958L388.461 88.1356ZM639.998 88.1356H891.3L851.661 69.7269H639.927L639.998 88.1356ZM428.494 69.4769L456.998 56.1918H639.624L639.676 69.4769H428.494ZM639.926 69.4769L639.874 56.1918H822.516L851.123 69.4769H639.926ZM851.716 69.4769L823.11 56.1918H1005.32L1062.48 69.4769H851.716ZM1063.58 69.4769L1006.42 56.1918H1188.12L1273.84 69.4769H1063.58Z" fill="url(#paint0_linear_1_6261)"/>
<defs>
<linearGradient id="paint0_linear_1_6261" x1="640" y1="120" x2="640" y2="0" gradientUnits="userSpaceOnUse">
<stop offset="0.651297" stop-color="#828282"/>
<stop offset="1" stop-color="#585858" stop-opacity="0"/>
</linearGradient>
</defs>
</svg>
