<svg width="24" height="24" viewBox="0 0 24 24" fill="none" xmlns="http://www.w3.org/2000/svg">
<path d="M17.25 0.75C17.6284 0.74988 17.9929 0.892805 18.2704 1.15012C18.5479 1.40744 18.7179 1.76013 18.7463 2.1375L18.75 2.25V14.25H21.75V15.75H20.25V21.75H21.75V23.25H2.25V21.75H3.75V15.75H2.25V14.25H5.25V2.25C5.24988 1.87157 5.3928 1.50708 5.65012 1.22959C5.90744 0.952103 6.26013 0.782132 6.6375 0.75375L6.75 0.75H17.25ZM6.75 15.75H5.25V21.75H6.75V15.75ZM9.75 15.75H8.25V21.75H9.75V15.75ZM12.75 15.75H11.25V21.75H12.75V15.75ZM15.75 15.75H14.25V21.75H15.75V15.75ZM18.75 15.75H17.25V21.75H18.75V15.75ZM11.25 9.75H6.75V14.25H11.25V9.75ZM17.25 9.75H12.75V14.25H17.25V9.75ZM11.25 2.25H6.75V8.25H11.25V2.25ZM17.25 2.25H12.75V8.25H17.25V2.25Z" fill="white"/>
</svg>
