<svg width="24" height="24" viewBox="0 0 24 24" fill="none" xmlns="http://www.w3.org/2000/svg">
<path d="M19.5 3C19.8784 2.99988 20.2429 3.1428 20.5204 3.40012C20.7979 3.65744 20.9679 4.01013 20.9963 4.3875L21 4.5V10.3792L22.3845 14.532C22.4226 14.6465 22.4515 14.7639 22.4708 14.883L22.4932 15.063L22.5 15.243V22.5H21V21H3V22.5H1.5V15.2438C1.50001 15.0625 1.52192 14.882 1.56525 14.706L1.6155 14.532L3 10.377V4.5C2.99998 4.14155 3.12833 3.79494 3.36181 3.52294C3.59528 3.25095 3.91843 3.07156 4.27275 3.01725L4.38825 3.00375L4.5 3H19.5ZM21 16.5H3V19.5H21V16.5ZM19.959 12H4.04025L3.0405 15H20.9587L19.959 12ZM19.5 4.5H4.5V10.5H6V7.5C5.99988 7.12157 6.1428 6.75708 6.40012 6.47959C6.65744 6.2021 7.01013 6.03213 7.3875 6.00375L7.5 6H16.5C16.8784 5.99988 17.2429 6.1428 17.5204 6.40012C17.7979 6.65744 17.9679 7.01013 17.9963 7.3875L18 7.5V10.5H19.5V4.5ZM11.25 7.5H7.5V10.5H11.25V7.5ZM16.5 7.5H12.75V10.5H16.5V7.5Z" fill="white"/>
</svg>
