<svg width="24" height="24" viewBox="0 0 24 24" fill="none" xmlns="http://www.w3.org/2000/svg">
<path d="M21.75 4V19.75H20.25V15.25H15.75V19.75H14.25V15.25L14.2538 15.1375C14.2806 14.7804 14.4343 14.4446 14.6871 14.191C14.94 13.9373 15.2752 13.7825 15.6323 13.7545L15.75 13.75H20.25V4H21.75ZM3.75 4V13.75H8.25C8.62843 13.7499 8.99293 13.8928 9.27041 14.1501C9.5479 14.4074 9.71787 14.7601 9.74625 15.1375L9.75 15.25V19.75H8.25V15.25H3.75V19.75H2.25V4H3.75Z" fill="white"/>
<rect x="5.25" y="10" width="13.5" height="1.5" fill="white"/>
<rect x="11.25" y="10.75" width="1.5" height="9" fill="white"/>
</svg>
