<svg width="24" height="24" viewBox="0 0 24 24" fill="none" xmlns="http://www.w3.org/2000/svg">
<path d="M18.75 0.75C19.3239 0.749968 19.8761 0.969244 20.2937 1.36296C20.7113 1.75668 20.9626 2.29508 20.9963 2.868L21 3V19.5C21 20.0739 20.7808 20.6261 20.387 21.0437C19.9933 21.4613 19.4549 21.7126 18.882 21.7463L18.75 21.75V23.25H17.25V21.75H6.75V23.25H5.25V21.75C4.67609 21.75 4.12386 21.5308 3.7063 21.137C3.28874 20.7433 3.03742 20.2049 3.00375 19.632L3 19.5V3C2.99997 2.42609 3.21924 1.87386 3.61296 1.4563C4.00668 1.03874 4.54508 0.787419 5.118 0.75375L5.25 0.75H18.75ZM19.5 15.75H4.5V19.5C4.50002 19.6837 4.56747 19.861 4.68954 19.9983C4.81161 20.1356 4.97981 20.2233 5.16225 20.2448L5.25 20.25H18.75C18.9337 20.25 19.111 20.1825 19.2483 20.0605C19.3856 19.9384 19.4733 19.7702 19.4948 19.5877L19.5 19.5V15.75ZM12 17.25C12.1989 17.25 12.3897 17.329 12.5303 17.4697C12.671 17.6103 12.75 17.8011 12.75 18C12.75 18.1989 12.671 18.3897 12.5303 18.5303C12.3897 18.671 12.1989 18.75 12 18.75C11.8011 18.75 11.6103 18.671 11.4697 18.5303C11.329 18.3897 11.25 18.1989 11.25 18C11.25 17.8011 11.329 17.6103 11.4697 17.4697C11.6103 17.329 11.8011 17.25 12 17.25ZM18.75 2.25H12.75V14.25H19.5V3C19.5 2.8163 19.4325 2.639 19.3105 2.50172C19.1884 2.36444 19.0202 2.27674 18.8378 2.25525L18.75 2.25ZM11.25 2.25H5.25C5.0663 2.25002 4.889 2.31747 4.75172 2.43954C4.61444 2.56161 4.52674 2.72981 4.50525 2.91225L4.5 3V14.25H11.25V2.25ZM9 8.25C9.19891 8.25 9.38968 8.32902 9.53033 8.46967C9.67098 8.61032 9.75 8.80109 9.75 9C9.75 9.19891 9.67098 9.38968 9.53033 9.53033C9.38968 9.67098 9.19891 9.75 9 9.75C8.80109 9.75 8.61032 9.67098 8.46967 9.53033C8.32902 9.38968 8.25 9.19891 8.25 9C8.25 8.80109 8.32902 8.61032 8.46967 8.46967C8.61032 8.32902 8.80109 8.25 9 8.25ZM15 8.25C15.1989 8.25 15.3897 8.32902 15.5303 8.46967C15.671 8.61032 15.75 8.80109 15.75 9C15.75 9.19891 15.671 9.38968 15.5303 9.53033C15.3897 9.67098 15.1989 9.75 15 9.75C14.8011 9.75 14.6103 9.67098 14.4697 9.53033C14.329 9.38968 14.25 9.19891 14.25 9C14.25 8.80109 14.329 8.61032 14.4697 8.46967C14.6103 8.32902 14.8011 8.25 15 8.25Z" fill="white"/>
</svg>
