<svg width="24" height="24" viewBox="0 0 24 24" fill="none" xmlns="http://www.w3.org/2000/svg">
<path d="M21 1.5C21.3784 1.49988 21.7429 1.6428 22.0204 1.90012C22.2979 2.15744 22.4679 2.51013 22.4963 2.8875L22.5 3V21C22.5001 21.3784 22.3572 21.7429 22.0999 22.0204C21.8426 22.2979 21.4899 22.4679 21.1125 22.4963L21 22.5H3C2.62157 22.5001 2.25708 22.3572 1.97959 22.0999C1.7021 21.8426 1.53213 21.4899 1.50375 21.1125L1.5 21V3C1.49988 2.62157 1.6428 2.25708 1.90012 1.97959C2.15744 1.7021 2.51013 1.53213 2.8875 1.50375L3 1.5H21ZM21 9H3V21H21V9ZM19.5 10.5V19.5H4.5V10.5H19.5ZM18 12H6V18H18V12ZM21 3H3V7.5H21V3Z" fill="white"/>
</svg>
