<svg width="24" height="24" viewBox="0 0 24 24" fill="none" xmlns="http://www.w3.org/2000/svg">
<path d="M23.4446 0L13.1465 8.1279L15.0615 3.3379L23.4446 0Z" fill="#E17726"/>
<path d="M0.580359 0.00976562L8.94108 3.33867L10.7595 8.19147L0.580359 0.00976562ZM19.2993 17.286L23.851 17.3784L22.2602 23.1426L16.7062 21.5115L19.2993 17.286ZM4.70048 17.286L7.28395 21.5115L1.7393 23.1427L0.158203 17.3784L4.70048 17.286Z" fill="#E27625"/>
<path d="M10.5128 6.95529L10.6988 13.3636L5.13281 13.0935L6.71606 10.5457L6.73613 10.5212L10.5128 6.95529ZM13.4306 6.88379L17.265 10.5214L17.2849 10.5458L18.8681 13.0936L13.3033 13.3636L13.4306 6.88379ZM7.44759 17.3045L10.4868 19.8304L6.95634 21.6485L7.44759 17.3045ZM16.5541 17.3041L17.0351 21.6486L13.5145 19.8302L16.5541 17.3041Z" fill="#E27625"/>
<path d="M13.5918 19.5923L17.1644 21.4375L13.8412 23.1221L13.8757 22.0087L13.5918 19.5923ZM10.4074 19.5931L10.1347 21.9905L10.1571 23.1208L6.82617 21.4375L10.4074 19.5931Z" fill="#D5BFB2"/>
<path d="M9.3757 14.1997L10.3093 16.2925L7.13086 15.2993L9.3757 14.1997ZM14.6243 14.1999L16.8797 15.2993L13.6909 16.2922L14.6243 14.1999Z" fill="#233447"/>
<path d="M7.68934 17.2832L7.17559 21.7872L4.42188 17.3817L7.68934 17.2832ZM16.3097 17.2833L19.5772 17.3817L16.8132 21.7874L16.3097 17.2833ZM18.9474 12.8389L16.5694 15.424L14.736 14.5303L13.8582 16.4987L13.2827 13.1138L18.9474 12.8389ZM5.05019 12.8389L10.716 13.1138L10.1404 16.4987L9.26247 14.5306L7.43875 15.4241L5.05019 12.8389Z" fill="#CC6228"/>
<path d="M4.89062 12.3084L7.58106 15.2205L7.67425 18.0954L4.89062 12.3084ZM19.1122 12.3032L16.3235 18.1005L16.4285 15.2205L19.1122 12.3032ZM10.5851 12.4858L10.6934 13.2128L10.9609 15.0239L10.7889 20.5864L9.97563 16.1179L9.97534 16.0717L10.5851 12.4858ZM13.4136 12.4757L14.025 16.0717L14.0247 16.1179L13.2093 20.5976L13.1771 19.4771L13.0499 14.9909L13.4136 12.4757Z" fill="#E27525"/>
<path d="M16.6672 15.1045L16.5762 17.6023L13.738 19.961L13.1642 19.5286L13.8074 15.9951L16.6672 15.1045ZM7.3418 15.1045L10.1917 15.9951L10.8348 19.5286L10.2611 19.961L7.4228 17.6021L7.3418 15.1045Z" fill="#F5841F"/>
<path d="M6.2832 20.8857L9.91433 22.7209L9.89895 21.9372L10.2028 21.6527H13.7966L14.1114 21.9362L14.0882 22.7193L17.6963 20.8903L15.9406 22.4379L13.8176 23.9932H10.1736L8.05208 22.4315L6.2832 20.8857Z" fill="#C0AC9D"/>
<path d="M13.3312 19.3477L13.8446 19.7346L14.1454 22.295L13.71 21.9029H10.2904L9.86328 22.3029L10.1543 19.7348L10.6678 19.3477H13.3312Z" fill="#161616"/>
<path d="M22.7638 0.225098L24 4.1808L23.228 8.1805L23.7777 8.6328L23.0338 9.2382L23.5929 9.6988L22.8526 10.4179L23.3071 10.769L22.1009 12.2716L17.1537 10.7351L17.1109 10.7106L13.5458 7.5028L22.7638 0.225098ZM1.23619 0.225098L10.4543 7.5028L6.88912 10.7106L6.84628 10.7351L1.89909 12.2716L0.692906 10.769L1.14703 10.4182L0.407156 9.6988L0.965156 9.2387L0.210094 8.6316L0.780563 8.179L0 4.181L1.23619 0.225098Z" fill="#763E1A"/>
<path d="M16.9112 10.3988L22.153 12.0267L23.856 17.6253H19.3631L16.2675 17.6669L18.5188 12.9861L16.9112 10.3988ZM7.08769 10.3988L5.47978 12.9861L7.73138 17.6669L4.63716 17.6253H0.152344L1.84575 12.0268L7.08769 10.3988ZM15.3167 3.31104L13.8505 7.53493L13.5394 13.2409L13.4203 15.0294L13.4108 19.5982H10.5879L10.5788 15.038L10.4593 13.2394L10.1481 7.53493L8.68209 3.31104H15.3167Z" fill="#F5841F"/>
</svg>
