<svg width="24" height="24" viewBox="0 0 24 24" fill="none" xmlns="http://www.w3.org/2000/svg">
<path d="M18.75 0.75C19.1284 0.74988 19.4929 0.892805 19.7704 1.15012C20.0479 1.40744 20.2179 1.76013 20.2463 2.1375L20.25 2.25V21.75C20.2501 22.1284 20.1072 22.4929 19.8499 22.7704C19.5926 23.0479 19.2399 23.2179 18.8625 23.2463L18.75 23.25H5.25C4.87157 23.2501 4.50708 23.1072 4.22959 22.8499C3.9521 22.5926 3.78213 22.2399 3.75375 21.8625L3.75 21.75V2.25C3.74988 1.87157 3.8928 1.50708 4.15012 1.22959C4.40744 0.952103 4.76013 0.782132 5.1375 0.75375L5.25 0.75H18.75ZM18.75 8.25H5.25V21.75H18.75V8.25ZM7.5 9.75C7.69891 9.75 7.88968 9.82902 8.03033 9.96967C8.17098 10.1103 8.25 10.3011 8.25 10.5C8.25 10.6989 8.17098 10.8897 8.03033 11.0303C7.88968 11.171 7.69891 11.25 7.5 11.25C7.30109 11.25 7.11032 11.171 6.96967 11.0303C6.82902 10.8897 6.75 10.6989 6.75 10.5C6.75 10.3011 6.82902 10.1103 6.96967 9.96967C7.11032 9.82902 7.30109 9.75 7.5 9.75ZM18.75 2.25H5.25V6.75H18.75V2.25ZM7.5 3.75C7.69891 3.75 7.88968 3.82902 8.03033 3.96967C8.17098 4.11032 8.25 4.30109 8.25 4.5C8.25 4.69891 8.17098 4.88968 8.03033 5.03033C7.88968 5.17098 7.69891 5.25 7.5 5.25C7.30109 5.25 7.11032 5.17098 6.96967 5.03033C6.82902 4.88968 6.75 4.69891 6.75 4.5C6.75 4.30109 6.82902 4.11032 6.96967 3.96967C7.11032 3.82902 7.30109 3.75 7.5 3.75Z" fill="white"/>
</svg>
