<svg width="24" height="24" viewBox="0 0 24 24" fill="none" xmlns="http://www.w3.org/2000/svg">
<path d="M5.25 0.75C4.67609 0.749968 4.12386 0.969244 3.7063 1.36296C3.28874 1.75668 3.03742 2.29508 3.00375 2.868L3 3V23.25H4.5V3C4.50002 2.8163 4.56747 2.639 4.68954 2.50172C4.81161 2.36444 4.97981 2.27674 5.16225 2.25525L5.25 2.25H13.5C13.6837 2.25002 13.861 2.31747 13.9983 2.43954C14.1356 2.56161 14.2233 2.72981 14.2448 2.91225L14.25 3V3.75H10.5C10.3163 3.75002 10.139 3.81747 10.0017 3.93954C9.86444 4.06161 9.77674 4.22981 9.75525 4.41225L9.75 4.5V6.75H7.5V8.25H21.75V6.75H20.25V4.5C20.25 4.3163 20.1825 4.139 20.0605 4.00172C19.9384 3.86444 19.7702 3.77674 19.5877 3.75525L19.5 3.75H15.75V3C15.75 2.42609 15.5308 1.87386 15.137 1.4563C14.7433 1.03874 14.2049 0.787419 13.632 0.75375L13.5 0.75H5.25ZM15 21.75C14.8011 21.75 14.6103 21.829 14.4697 21.9697C14.329 22.1103 14.25 22.3011 14.25 22.5C14.25 22.6989 14.329 22.8897 14.4697 23.0303C14.6103 23.171 14.8011 23.25 15 23.25C15.1989 23.25 15.3897 23.171 15.5303 23.0303C15.671 22.8897 15.75 22.6989 15.75 22.5C15.75 22.3011 15.671 22.1103 15.5303 21.9697C15.3897 21.829 15.1989 21.75 15 21.75ZM18.75 21.75C18.5511 21.75 18.3603 21.829 18.2197 21.9697C18.079 22.1103 18 22.3011 18 22.5C18 22.6989 18.079 22.8897 18.2197 23.0303C18.3603 23.171 18.5511 23.25 18.75 23.25C18.9489 23.25 19.1397 23.171 19.2803 23.0303C19.421 22.8897 19.5 22.6989 19.5 22.5C19.5 22.3011 19.421 22.1103 19.2803 21.9697C19.1397 21.829 18.9489 21.75 18.75 21.75ZM11.25 21.75C11.0511 21.75 10.8603 21.829 10.7197 21.9697C10.579 22.1103 10.5 22.3011 10.5 22.5C10.5 22.6989 10.579 22.8897 10.7197 23.0303C10.8603 23.171 11.0511 23.25 11.25 23.25C11.4489 23.25 11.6397 23.171 11.7803 23.0303C11.921 22.8897 12 22.6989 12 22.5C12 22.3011 11.921 22.1103 11.7803 21.9697C11.6397 21.829 11.4489 21.75 11.25 21.75ZM15 18.75C14.8011 18.75 14.6103 18.829 14.4697 18.9697C14.329 19.1103 14.25 19.3011 14.25 19.5C14.25 19.6989 14.329 19.8897 14.4697 20.0303C14.6103 20.171 14.8011 20.25 15 20.25C15.1989 20.25 15.3897 20.171 15.5303 20.0303C15.671 19.8897 15.75 19.6989 15.75 19.5C15.75 19.3011 15.671 19.1103 15.5303 18.9697C15.3897 18.829 15.1989 18.75 15 18.75ZM18.75 18.75C18.5511 18.75 18.3603 18.829 18.2197 18.9697C18.079 19.1103 18 19.3011 18 19.5C18 19.6989 18.079 19.8897 18.2197 20.0303C18.3603 20.171 18.5511 20.25 18.75 20.25C18.9489 20.25 19.1397 20.171 19.2803 20.0303C19.421 19.8897 19.5 19.6989 19.5 19.5C19.5 19.3011 19.421 19.1103 19.2803 18.9697C19.1397 18.829 18.9489 18.75 18.75 18.75ZM11.25 18.75C11.0511 18.75 10.8603 18.829 10.7197 18.9697C10.579 19.1103 10.5 19.3011 10.5 19.5C10.5 19.6989 10.579 19.8897 10.7197 20.0303C10.8603 20.171 11.0511 20.25 11.25 20.25C11.4489 20.25 11.6397 20.171 11.7803 20.0303C11.921 19.8897 12 19.6989 12 19.5C12 19.3011 11.921 19.1103 11.7803 18.9697C11.6397 18.829 11.4489 18.75 11.25 18.75ZM15 15.75C14.8011 15.75 14.6103 15.829 14.4697 15.9697C14.329 16.1103 14.25 16.3011 14.25 16.5C14.25 16.6989 14.329 16.8897 14.4697 17.0303C14.6103 17.171 14.8011 17.25 15 17.25C15.1989 17.25 15.3897 17.171 15.5303 17.0303C15.671 16.8897 15.75 16.6989 15.75 16.5C15.75 16.3011 15.671 16.1103 15.5303 15.9697C15.3897 15.829 15.1989 15.75 15 15.75ZM18.75 15.75C18.5511 15.75 18.3603 15.829 18.2197 15.9697C18.079 16.1103 18 16.3011 18 16.5C18 16.6989 18.079 16.8897 18.2197 17.0303C18.3603 17.171 18.5511 17.25 18.75 17.25C18.9489 17.25 19.1397 17.171 19.2803 17.0303C19.421 16.8897 19.5 16.6989 19.5 16.5C19.5 16.3011 19.421 16.1103 19.2803 15.9697C19.1397 15.829 18.9489 15.75 18.75 15.75ZM11.25 15.75C11.0511 15.75 10.8603 15.829 10.7197 15.9697C10.579 16.1103 10.5 16.3011 10.5 16.5C10.5 16.6989 10.579 16.8897 10.7197 17.0303C10.8603 17.171 11.0511 17.25 11.25 17.25C11.4489 17.25 11.6397 17.171 11.7803 17.0303C11.921 16.8897 12 16.6989 12 16.5C12 16.3011 11.921 16.1103 11.7803 15.9697C11.6397 15.829 11.4489 15.75 11.25 15.75ZM15 12.75C14.8011 12.75 14.6103 12.829 14.4697 12.9697C14.329 13.1103 14.25 13.3011 14.25 13.5C14.25 13.6989 14.329 13.8897 14.4697 14.0303C14.6103 14.171 14.8011 14.25 15 14.25C15.1989 14.25 15.3897 14.171 15.5303 14.0303C15.671 13.8897 15.75 13.6989 15.75 13.5C15.75 13.3011 15.671 13.1103 15.5303 12.9697C15.3897 12.829 15.1989 12.75 15 12.75ZM18.75 12.75C18.5511 12.75 18.3603 12.829 18.2197 12.9697C18.079 13.1103 18 13.3011 18 13.5C18 13.6989 18.079 13.8897 18.2197 14.0303C18.3603 14.171 18.5511 14.25 18.75 14.25C18.9489 14.25 19.1397 14.171 19.2803 14.0303C19.421 13.8897 19.5 13.6989 19.5 13.5C19.5 13.3011 19.421 13.1103 19.2803 12.9697C19.1397 12.829 18.9489 12.75 18.75 12.75ZM11.25 12.75C11.0511 12.75 10.8603 12.829 10.7197 12.9697C10.579 13.1103 10.5 13.3011 10.5 13.5C10.5 13.6989 10.579 13.8897 10.7197 14.0303C10.8603 14.171 11.0511 14.25 11.25 14.25C11.4489 14.25 11.6397 14.171 11.7803 14.0303C11.921 13.8897 12 13.6989 12 13.5C12 13.3011 11.921 13.1103 11.7803 12.9697C11.6397 12.829 11.4489 12.75 11.25 12.75ZM15 9.75C14.8011 9.75 14.6103 9.82902 14.4697 9.96967C14.329 10.1103 14.25 10.3011 14.25 10.5C14.25 10.6989 14.329 10.8897 14.4697 11.0303C14.6103 11.171 14.8011 11.25 15 11.25C15.1989 11.25 15.3897 11.171 15.5303 11.0303C15.671 10.8897 15.75 10.6989 15.75 10.5C15.75 10.3011 15.671 10.1103 15.5303 9.96967C15.3897 9.82902 15.1989 9.75 15 9.75ZM11.25 9.75C11.0511 9.75 10.8603 9.82902 10.7197 9.96967C10.579 10.1103 10.5 10.3011 10.5 10.5C10.5 10.6989 10.579 10.8897 10.7197 11.0303C10.8603 11.171 11.0511 11.25 11.25 11.25C11.4489 11.25 11.6397 11.171 11.7803 11.0303C11.921 10.8897 12 10.6989 12 10.5C12 10.3011 11.921 10.1103 11.7803 9.96967C11.6397 9.82902 11.4489 9.75 11.25 9.75ZM18.75 9.75C18.5511 9.75 18.3603 9.82902 18.2197 9.96967C18.079 10.1103 18 10.3011 18 10.5C18 10.6989 18.079 10.8897 18.2197 11.0303C18.3603 11.171 18.5511 11.25 18.75 11.25C18.9489 11.25 19.1397 11.171 19.2803 11.0303C19.421 10.8897 19.5 10.6989 19.5 10.5C19.5 10.3011 19.421 10.1103 19.2803 9.96967C19.1397 9.82902 18.9489 9.75 18.75 9.75ZM11.25 5.25H18.75V6.75H11.25V5.25Z" fill="white"/>
</svg>
