<svg width="14" height="15" viewBox="0 0 14 15" fill="none" xmlns="http://www.w3.org/2000/svg">
<path d="M10.5 8.5C10.3674 8.5 10.2402 8.55268 10.1464 8.64645C10.0527 8.74021 10 8.86739 10 9C10 9.13261 10.0527 9.25979 10.1464 9.35355C10.2402 9.44732 10.3674 9.5 10.5 9.5H11.5C11.6326 9.5 11.7598 9.44732 11.8536 9.35355C11.9473 9.25979 12 9.13261 12 9C12 8.86739 11.9473 8.74021 11.8536 8.64645C11.7598 8.55268 11.6326 8.5 11.5 8.5H10.5ZM0 2C0 1.60218 0.158035 1.22064 0.43934 0.93934C0.720644 0.658035 1.10218 0.5 1.5 0.5H11C11.5304 0.5 12.0391 0.710714 12.4142 1.08579C12.7893 1.46086 13 1.96957 13 2.5V2.768C13.304 2.94353 13.5565 3.196 13.732 3.50003C13.9076 3.80406 14 4.14894 14 4.5V12.5C14 13.0304 13.7893 13.5391 13.4142 13.9142C13.0391 14.2893 12.5304 14.5 12 14.5H2.5C1.83696 14.5 1.20107 14.2366 0.732233 13.7678C0.263392 13.2989 0 12.663 0 12V2ZM11 1.5H1.5C1.36739 1.5 1.24021 1.55268 1.14645 1.64645C1.05268 1.74021 1 1.86739 1 2C1 2.13261 1.05268 2.25979 1.14645 2.35355C1.24021 2.44732 1.36739 2.5 1.5 2.5H12C12 2.23478 11.8946 1.98043 11.7071 1.79289C11.5196 1.60536 11.2652 1.5 11 1.5ZM1.5 3.5C1.325 3.5 1.156 3.47 1 3.415V12C1 12.3978 1.15804 12.7794 1.43934 13.0607C1.72064 13.342 2.10218 13.5 2.5 13.5H12C12.2652 13.5 12.5196 13.3946 12.7071 13.2071C12.8946 13.0196 13 12.7652 13 12.5V4.5C13 4.23478 12.8946 3.98043 12.7071 3.79289C12.5196 3.60536 12.2652 3.5 12 3.5H1.5Z" fill="white"/>
</svg>
