<svg width="24" height="24" viewBox="0 0 24 24" fill="none" xmlns="http://www.w3.org/2000/svg">
<path d="M6.75 21.75V20.25H8.25V18.75H4.5C3.53365 18.7499 2.60463 18.3768 1.90667 17.7085C1.20871 17.0402 0.795689 16.1282 0.75375 15.1627L0.75 15V6C0.750056 5.03365 1.12316 4.10463 1.79149 3.40667C2.45983 2.70871 3.37181 2.29569 4.33725 2.25375L4.5 2.25H19.5C20.4663 2.25006 21.3954 2.62316 22.0933 3.29149C22.7913 3.95983 23.2043 4.87181 23.2463 5.83725L23.25 6V15C23.2499 15.9663 22.8768 16.8954 22.2085 17.5933C21.5402 18.2913 20.6282 18.7043 19.6628 18.7463L19.5 18.75H15.75V20.25H17.25V21.75H6.75ZM14.25 18.75H9.75V20.25H14.25V18.75ZM19.5 3.75H4.5C3.92609 3.74997 3.37386 3.96924 2.9563 4.36296C2.53874 4.75668 2.28742 5.29508 2.25375 5.868L2.25 6V15C2.24997 15.5739 2.46924 16.1261 2.86296 16.5437C3.25668 16.9613 3.79508 17.2126 4.368 17.2463L4.5 17.25H19.5C20.0739 17.25 20.6261 17.0308 21.0437 16.637C21.4613 16.2433 21.7126 15.7049 21.7463 15.132L21.75 15V6C21.75 5.42609 21.5308 4.87386 21.137 4.4563C20.7433 4.03874 20.2049 3.78742 19.632 3.75375L19.5 3.75Z" fill="white"/>
</svg>
