<svg width="28" height="29" viewBox="0 0 28 29" fill="none" xmlns="http://www.w3.org/2000/svg">
<g clip-path="url(#clip0_2068_46087)">
<path d="M14 0.5C21.7324 0.5 28 6.76762 28 14.5C28 22.2324 21.7324 28.5 14 28.5C6.26762 28.5 0 22.2324 0 14.5C0 6.76762 6.26762 0.5 14 0.5ZM16.933 5.365C16.7195 5.26 16.506 5.365 16.4535 5.57762C16.4001 5.631 16.4001 5.68437 16.4001 5.79025V6.534L16.4089 6.625C16.4546 6.80501 16.5652 6.96177 16.7195 7.06512C20.8792 8.55262 23.0125 13.1726 21.4655 17.2615C20.6658 19.4928 18.9061 21.1911 16.7195 21.9883C16.506 22.0941 16.4001 22.2534 16.4001 22.5194V23.2631L16.4045 23.3401C16.4128 23.4241 16.4479 23.5033 16.5047 23.5658C16.5614 23.6284 16.6367 23.671 16.7195 23.6875C16.7729 23.6875 16.8796 23.6875 16.933 23.635C18.1331 23.2602 19.2473 22.6517 20.2113 21.8446C21.1753 21.0375 21.9701 20.0476 22.5499 18.932C23.1298 17.8165 23.4833 16.5972 23.59 15.3444C23.6967 14.0917 23.5546 12.8302 23.1718 11.6326C22.2127 8.60512 19.866 6.32137 16.933 5.36587V5.365ZM11.2805 5.3125C11.2271 5.3125 11.1204 5.3125 11.067 5.365C9.86688 5.73978 8.75274 6.34826 7.78874 7.1554C6.82475 7.96254 6.02993 8.9524 5.45006 10.068C4.87019 11.1835 4.51673 12.4028 4.41001 13.6556C4.30329 14.9083 4.44543 16.1698 4.82825 17.3674C5.78725 20.3424 8.08062 22.6261 11.067 23.5816C11.2805 23.6875 11.494 23.5816 11.5465 23.369C11.5999 23.3165 11.5999 23.2622 11.5999 23.1564V22.4126L11.5911 22.3426C11.5544 22.1947 11.417 22.0259 11.2805 21.9349C7.12075 20.4474 4.9875 15.8274 6.5345 11.7385C7.33425 9.50725 9.09387 7.80888 11.2805 7.01175C11.494 6.90587 11.5999 6.74662 11.5999 6.48063V5.73688L11.5955 5.65987C11.5872 5.57585 11.5521 5.49673 11.4954 5.43418C11.4386 5.37163 11.3633 5.32898 11.2805 5.3125ZM14.3736 8.074H13.573L13.496 8.081C13.321 8.116 13.1932 8.2665 13.146 8.49925V9.72075L12.9649 9.74875C11.4704 10.0147 10.5341 11.0464 10.5341 12.323C10.5341 14.0747 11.5999 14.7651 13.8399 15.0311C15.3335 15.2963 15.813 15.6156 15.813 16.4653C15.813 17.314 15.0666 17.8985 14.0534 17.8985C12.6665 17.8985 12.187 17.3149 12.0269 16.5177C11.9744 16.306 11.8134 16.1992 11.6532 16.1992H10.7467L10.6776 16.2054C10.5913 16.2193 10.513 16.2641 10.4572 16.3313C10.4014 16.3985 10.3718 16.4838 10.374 16.5711V16.6236L10.4029 16.7811C10.6566 18.0271 11.5106 18.9187 13.2003 19.1734V20.4482L13.2072 20.5252C13.2422 20.6985 13.3936 20.8263 13.6273 20.8726H14.427L14.504 20.8656C14.679 20.8306 14.8068 20.6801 14.854 20.4482V19.1725L15.0351 19.1375C16.534 18.8207 17.5201 17.7366 17.5201 16.3576C17.5201 14.4991 16.4001 13.8621 14.1601 13.5961C12.5598 13.3835 12.2404 12.9591 12.2404 12.2154C12.2404 11.4716 12.7741 10.9939 13.8399 10.9939C14.7998 10.9939 15.3335 11.3124 15.5995 12.1095C15.6272 12.1866 15.6779 12.2533 15.7447 12.3007C15.8115 12.3481 15.8912 12.3739 15.9731 12.3746H16.8263L16.8954 12.3694C16.982 12.3556 17.0606 12.3108 17.1166 12.2434C17.1726 12.1759 17.2022 12.0904 17.1999 12.0028V11.9503L17.1675 11.7989C17.0361 11.255 16.7366 10.7664 16.3115 10.4025C15.8864 10.0387 15.3574 9.81821 14.7997 9.77238V8.49925L14.7928 8.42225C14.7578 8.24813 14.6064 8.12038 14.3728 8.074H14.3736Z" fill="#406AFF"/>
</g>
<defs>
<clipPath id="clip0_2068_46087">
<rect width="28" height="28" fill="white" transform="translate(0 0.5)"/>
</clipPath>
</defs>
</svg>
